<svg width="27" height="22" viewBox="0 0 27 22" fill="none" xmlns="http://www.w3.org/2000/svg">
<path d="M6.60938 0C7.84375 0 8.98438 0.234375 10.0312 0.703125C11.0859 1.17188 11.9023 1.82031 12.4805 2.64844C12.5898 2.8125 12.6562 2.92969 12.6797 3C12.7109 3.07031 12.7266 3.18359 12.7266 3.33984V20.6719C12.7266 20.8203 12.6797 20.9375 12.5859 21.0234C12.5 21.1172 12.3906 21.1641 12.2578 21.1641C12.1094 21.1641 11.9727 21.1094 11.8477 21C11.4336 20.6406 10.9727 20.332 10.4648 20.0742C9.95703 19.8242 9.41797 19.6289 8.84766 19.4883C8.27734 19.3555 7.6875 19.2891 7.07812 19.2891C6.10156 19.2891 5.14453 19.4492 4.20703 19.7695C3.26953 20.0977 2.42969 20.5781 1.6875 21.2109C1.57812 21.3047 1.45703 21.375 1.32422 21.4219C1.19922 21.4688 1.06641 21.4922 0.925781 21.4922C0.636719 21.4922 0.410156 21.4141 0.246094 21.2578C0.0820312 21.1094 0 20.8984 0 20.625V4.08984C0 3.87109 0.00390625 3.71094 0.0117188 3.60938C0.0273438 3.5 0.0703125 3.38672 0.140625 3.26953C0.539062 2.57422 1.08203 1.98437 1.76953 1.5C2.45703 1.01563 3.21875 0.644531 4.05469 0.386719C4.89844 0.128906 5.75 0 6.60938 0ZM20.3789 0C21.2383 0 22.0859 0.128906 22.9219 0.386719C23.7656 0.644531 24.5312 1.01563 25.2188 1.5C25.9062 1.98437 26.4492 2.57422 26.8477 3.26953C26.918 3.37891 26.957 3.48828 26.9648 3.59766C26.9805 3.70703 26.9883 3.87109 26.9883 4.08984V20.625C26.9883 20.8984 26.9062 21.1094 26.7422 21.2578C26.5781 21.4141 26.3516 21.4922 26.0625 21.4922C25.9219 21.4922 25.7852 21.4688 25.6523 21.4219C25.5273 21.375 25.4102 21.3047 25.3008 21.2109C24.5586 20.5781 23.7188 20.0977 22.7812 19.7695C21.8438 19.4492 20.8867 19.2891 19.9102 19.2891C19.3008 19.2891 18.7109 19.3555 18.1406 19.4883C17.5703 19.6289 17.0312 19.8242 16.5234 20.0742C16.0156 20.332 15.5547 20.6406 15.1406 21C15.0156 21.1094 14.8789 21.1641 14.7305 21.1641C14.5977 21.1641 14.4844 21.1172 14.3906 21.0234C14.3047 20.9375 14.2617 20.8203 14.2617 20.6719V3.33984C14.2617 3.18359 14.2734 3.07031 14.2969 3C14.3281 2.92969 14.3984 2.8125 14.5078 2.64844C15.0859 1.82031 15.8984 1.17188 16.9453 0.703125C18 0.234375 19.1445 0 20.3789 0Z" fill="white"/>
</svg>
