<svg width="24" height="28" viewBox="0 0 24 28" fill="none" xmlns="http://www.w3.org/2000/svg">
<path d="M13.4766 27.9141C11.4297 27.9141 9.79297 27.5742 8.56641 26.8945C7.34766 26.2148 6.69531 25.2617 6.60938 24.0352L6.62109 23.9531L5.40234 24.0703C4.44922 24.1797 3.64062 23.9766 2.97656 23.4609C2.32031 22.9531 1.99219 22.1719 1.99219 21.1172V18.8672C1.36719 18.7031 0.878906 18.3945 0.527344 17.9414C0.175781 17.4805 0 16.9453 0 16.3359C0 15.6797 0.199219 15.0039 0.597656 14.3086L2.02734 11.7305C2.01172 11.582 2 11.4297 1.99219 11.2734C1.98438 11.1172 1.98047 10.9453 1.98047 10.7578C1.98047 9.14062 2.23438 7.67578 2.74219 6.36328C3.25 5.04297 3.97266 3.91016 4.91016 2.96484C5.85547 2.01172 6.98047 1.28125 8.28516 0.773438C9.59766 0.257812 11.0508 0 12.6445 0C14.2461 0 15.7031 0.261719 17.0156 0.785156C18.3359 1.30859 19.4688 2.05469 20.4141 3.02344C21.3594 3.99219 22.0859 5.15234 22.5938 6.50391C23.1094 7.85547 23.3672 9.35547 23.3672 11.0039C23.3672 12.418 23.1094 13.7383 22.5938 14.9648C22.0859 16.1914 21.375 17.207 20.4609 18.0117V23.7305C20.4609 25.0508 19.8359 26.0781 18.5859 26.8125C17.3438 27.5469 15.6406 27.9141 13.4766 27.9141ZM8.625 12.457C9.34375 12.457 9.92969 12.2461 10.3828 11.8242C10.8359 11.4023 11.0625 10.8633 11.0625 10.207C11.0625 9.73828 10.9297 9.375 10.6641 9.11719C10.4844 8.94531 10.3945 8.76172 10.3945 8.56641C10.3945 8.41797 10.4453 8.29688 10.5469 8.20312C10.6562 8.10156 10.7891 8.05078 10.9453 8.05078C11.1172 8.05078 11.2617 8.10547 11.3789 8.21484C11.418 8.24609 11.4492 8.28516 11.4727 8.33203C11.5039 8.37891 11.5273 8.42188 11.543 8.46094C12.0195 8.39844 12.375 8.23438 12.6094 7.96875C12.8438 7.69531 12.9609 7.33203 12.9609 6.87891C12.9609 6.72266 13.0156 6.58984 13.125 6.48047C13.2344 6.36328 13.3672 6.30469 13.5234 6.30469C13.6797 6.30469 13.8125 6.36328 13.9219 6.48047C14.0312 6.59766 14.0859 6.73047 14.0859 6.87891C14.0938 8.27734 13.4258 9.12891 12.082 9.43359C12.1211 9.55859 12.1445 9.69141 12.1523 9.83203C12.168 9.96484 12.1758 10.0977 12.1758 10.2305C12.1758 10.8242 12.0391 11.3516 11.7656 11.8125C11.4922 12.2734 11.1094 12.6328 10.6172 12.8906C11.1953 13.1875 11.8281 13.3359 12.5156 13.3359C12.6641 13.3359 12.8203 13.3281 12.9844 13.3125C13.1562 13.2969 13.3242 13.2734 13.4883 13.2422C13.4258 13.0469 13.3945 12.8672 13.3945 12.7031C13.3945 12.0859 13.5469 11.5586 13.8516 11.1211C14.1562 10.6758 14.5352 10.2773 14.9883 9.92578C15.4414 9.56641 15.8945 9.21875 16.3477 8.88281C16.8008 8.53906 17.1797 8.16406 17.4844 7.75781C17.7969 7.35156 17.9531 6.87109 17.9531 6.31641C17.9531 5.86328 17.8438 5.45312 17.625 5.08594C17.4141 4.71875 17.125 4.42578 16.7578 4.20703C16.3984 3.98828 15.9961 3.87891 15.5508 3.87891C15.3164 3.87891 15.1484 3.88281 15.0469 3.89062C14.9453 3.89844 14.8633 3.91016 14.8008 3.92578C14.5508 3.65234 14.2539 3.4375 13.9102 3.28125C13.5742 3.125 13.2383 3.04688 12.9023 3.04688C12.3164 3.04688 11.8359 3.21484 11.4609 3.55078C11.0938 3.87891 10.9062 4.32031 10.8984 4.875C10.8984 5.04688 10.8438 5.1875 10.7344 5.29688C10.6328 5.39844 10.5 5.44922 10.3359 5.44922C10.1562 5.44922 10.0117 5.39062 9.90234 5.27344C9.80078 5.15625 9.75391 5.01172 9.76172 4.83984C9.76953 4.59766 9.80078 4.38672 9.85547 4.20703C9.91797 4.01953 9.98438 3.84766 10.0547 3.69141C9.82812 3.66016 9.625 3.64453 9.44531 3.64453C8.72656 3.64453 8.12109 3.84375 7.62891 4.24219C7.13672 4.63281 6.89062 5.12109 6.89062 5.70703C6.89062 6.07422 7.00781 6.38281 7.24219 6.63281C7.47656 6.88281 7.76172 7.00781 8.09766 7.00781C8.26172 7.00781 8.40234 7.06641 8.51953 7.18359C8.63672 7.29297 8.69531 7.42578 8.69531 7.58203C8.69531 7.73828 8.63672 7.875 8.51953 7.99219C8.40234 8.10156 8.26172 8.15625 8.09766 8.15625C7.60547 8.15625 7.17578 8.04688 6.80859 7.82812C6.44922 7.60938 6.17969 7.31641 6 6.94922C5.80469 7.23828 5.65234 7.55469 5.54297 7.89844C5.43359 8.24219 5.37891 8.58984 5.37891 8.94141C5.37891 9.93359 5.67188 10.7695 6.25781 11.4492C6.85156 12.1211 7.64062 12.457 8.625 12.457ZM17.6602 15.7148C18.3086 15.7148 18.8398 15.3867 19.2539 14.7305C19.668 14.0742 19.875 13.2344 19.875 12.2109C19.875 12.125 19.8711 12.0391 19.8633 11.9531C19.8633 11.8594 19.8633 11.7695 19.8633 11.6836C19.6211 11.7852 19.3594 11.8594 19.0781 11.9062C18.7969 11.9531 18.4961 11.9688 18.1758 11.9531C18.0195 11.9375 17.8906 11.875 17.7891 11.7656C17.6875 11.6562 17.6367 11.5273 17.6367 11.3789C17.6367 11.2227 17.6914 11.0859 17.8008 10.9688C17.918 10.8516 18.0508 10.8008 18.1992 10.8164C18.8555 10.8633 19.3828 10.7227 19.7812 10.3945C20.1797 10.0586 20.3789 9.59375 20.3789 9C20.3789 8.46094 20.2539 7.97656 20.0039 7.54688C19.7539 7.11719 19.4102 6.77734 18.9727 6.52734C18.9023 7.19141 18.7031 7.75781 18.375 8.22656C18.0469 8.69531 17.6602 9.10547 17.2148 9.45703C16.7773 9.80859 16.3398 10.1406 15.9023 10.4531C15.4727 10.7656 15.1133 11.0977 14.8242 11.4492C14.5352 11.8008 14.3906 12.2109 14.3906 12.6797C14.3906 13.0156 14.5 13.293 14.7188 13.5117C14.9453 13.7305 15.2578 13.8398 15.6562 13.8398H15.8555C15.9492 14.3945 16.1602 14.8477 16.4883 15.1992C16.8242 15.543 17.2148 15.7148 17.6602 15.7148Z" fill="white"/>
</svg>
