<svg width="27" height="27" viewBox="0 0 27 27" fill="none" xmlns="http://www.w3.org/2000/svg">
<path d="M1.32422 15.8906C0.457031 15.0234 0.0195312 14.1641 0.0117188 13.3125C0.00390625 12.4531 0.429688 11.5898 1.28906 10.7227L10.7344 1.28906C11.5938 0.429688 12.4531 0.00390625 13.3125 0.0117188C14.1719 0.0195313 15.0352 0.457031 15.9023 1.32422L25.2773 10.6992C26.1445 11.5664 26.582 12.4336 26.5898 13.3008C26.5977 14.1602 26.1719 15.0156 25.3125 15.8672L15.8789 25.3125C15.0195 26.1719 14.1602 26.5977 13.3008 26.5898C12.4414 26.582 11.5781 26.1445 10.7109 25.2773L1.32422 15.8906ZM13.2891 2.05078V24.5508C13.7344 24.5508 14.1719 24.3359 14.6016 23.9062L23.9062 14.6016C24.3438 14.1719 24.5586 13.7383 24.5508 13.3008C24.543 12.8555 24.332 12.4258 23.918 12.0117L14.5898 2.68359C14.1602 2.25391 13.7266 2.04297 13.2891 2.05078Z" fill="white"/>
</svg>
