<svg width="25" height="25" viewBox="0 0 25 25" fill="none" xmlns="http://www.w3.org/2000/svg">
<path d="M8.13703 5.65931C8.01649 5.5392 7.92085 5.39648 7.85559 5.23934C7.79034 5.08219 7.75674 4.91371 7.75674 4.74355C7.75674 4.5734 7.79034 4.40492 7.85559 4.24777C7.92085 4.09063 8.01649 3.94791 8.13703 3.8278L11.585 0.38025C11.7051 0.259724 11.8478 0.164093 12.005 0.0988409C12.1621 0.033589 12.3306 0 12.5008 0C12.671 0 12.8395 0.033589 12.9966 0.0988409C13.1538 0.164093 13.2965 0.259724 13.4167 0.38025L16.8646 3.8278C17.1075 4.07067 17.2439 4.40008 17.2439 4.74355C17.2439 5.08703 17.1075 5.41644 16.8646 5.65931C16.6217 5.90218 16.2922 6.03863 15.9487 6.03863C15.6052 6.03863 15.2758 5.90218 15.0329 5.65931L13.7927 4.42142V9.05407C13.7927 9.39695 13.6565 9.72578 13.414 9.96824C13.1715 10.2107 12.8426 10.3469 12.4997 10.3469C12.1568 10.3469 11.8279 10.2107 11.5855 9.96824C11.343 9.72578 11.2068 9.39695 11.2068 9.05407V4.42142L9.96659 5.65931C9.8465 5.77951 9.70391 5.87487 9.54694 5.93993C9.38998 6.00499 9.22173 6.03848 9.05181 6.03848C8.88189 6.03848 8.71364 6.00499 8.55668 5.93993C8.39972 5.87487 8.25712 5.77951 8.13703 5.65931ZM15.0329 19.3418L13.7927 20.5818V15.9492C13.7927 15.6063 13.6565 15.2774 13.414 15.035C13.1715 14.7925 12.8426 14.6563 12.4997 14.6563C12.1568 14.6563 11.8279 14.7925 11.5855 15.035C11.343 15.2774 11.2068 15.6063 11.2068 15.9492V20.5818L9.96659 19.3407C9.84631 19.2204 9.70353 19.125 9.54639 19.06C9.38925 18.9949 9.22082 18.9614 9.05073 18.9614C8.88064 18.9614 8.71222 18.9949 8.55508 19.06C8.39793 19.125 8.25515 19.2204 8.13488 19.3407C8.01461 19.4609 7.9192 19.6037 7.85411 19.7608C7.78902 19.918 7.75552 20.0864 7.75552 20.2564C7.75552 20.4265 7.78902 20.5949 7.85411 20.7521C7.9192 20.9092 8.01461 21.0519 8.13488 21.1722L11.5828 24.6197C11.7029 24.7403 11.8457 24.8359 12.0028 24.9012C12.16 24.9664 12.3285 25 12.4987 25C12.6688 25 12.8373 24.9664 12.9945 24.9012C13.1517 24.8359 13.2944 24.7403 13.4145 24.6197L16.8624 21.1722C17.1053 20.9293 17.2418 20.5999 17.2418 20.2564C17.2418 19.913 17.1053 19.5836 16.8624 19.3407C16.6195 19.0978 16.2901 18.9614 15.9466 18.9614C15.6031 18.9614 15.2736 19.0978 15.0307 19.3407L15.0329 19.3418ZM24.6224 11.5848L21.1745 8.13723C20.9316 7.89436 20.6021 7.75792 20.2586 7.75792C19.9151 7.75792 19.5857 7.89436 19.3428 8.13723C19.0999 8.38011 18.9634 8.70952 18.9634 9.05299C18.9634 9.39647 19.0999 9.72587 19.3428 9.96875L20.5808 11.2088H15.9477C15.6047 11.2088 15.2759 11.345 15.0334 11.5874C14.7909 11.8299 14.6547 12.1587 14.6547 12.5016C14.6547 12.8445 14.7909 13.1733 15.0334 13.4158C15.2759 13.6582 15.6047 13.7944 15.9477 13.7944H20.5808L19.3395 15.0345C19.0966 15.2774 18.9602 15.6068 18.9602 15.9502C18.9602 16.2937 19.0966 16.6231 19.3395 16.866C19.5824 17.1089 19.9119 17.2453 20.2554 17.2453C20.5989 17.2453 20.9284 17.1089 21.1712 16.866L24.6192 13.4184C24.7398 13.2984 24.8355 13.1557 24.9009 12.9986C24.9662 12.8415 24.9999 12.6731 25 12.5029C25.0001 12.3328 24.9666 12.1643 24.9014 12.0071C24.8363 11.8499 24.7407 11.7071 24.6202 11.5869L24.6224 11.5848ZM4.41867 13.7944H9.05181C9.39473 13.7944 9.7236 13.6582 9.96608 13.4158C10.2086 13.1733 10.3448 12.8445 10.3448 12.5016C10.3448 12.1587 10.2086 11.8299 9.96608 11.5874C9.7236 11.345 9.39473 11.2088 9.05181 11.2088H4.41867L5.65992 9.96875C5.90282 9.72587 6.03928 9.39647 6.03928 9.05299C6.03928 8.70952 5.90282 8.38011 5.65992 8.13723C5.41702 7.89436 5.08758 7.75792 4.74407 7.75792C4.40055 7.75792 4.07111 7.89436 3.82821 8.13723L0.380291 11.5848C0.259752 11.7049 0.16411 11.8476 0.0988514 12.0048C0.0335926 12.1619 0 12.3304 0 12.5005C0 12.6707 0.0335926 12.8392 0.0988514 12.9963C0.16411 13.1535 0.259752 13.2962 0.380291 13.4163L3.82821 16.8638C3.94848 16.9841 4.09127 17.0795 4.24841 17.1446C4.40555 17.2097 4.57398 17.2432 4.74407 17.2432C4.91416 17.2432 5.08258 17.2097 5.23972 17.1446C5.39686 17.0795 5.53965 16.9841 5.65992 16.8638C5.78019 16.7436 5.8756 16.6008 5.94069 16.4437C6.00578 16.2866 6.03928 16.1182 6.03928 15.9481C6.03928 15.778 6.00578 15.6096 5.94069 15.4525C5.8756 15.2954 5.78019 15.1526 5.65992 15.0323L4.41867 13.7944Z" fill="#0298C7"/>
</svg>
