<svg width="25" height="28" viewBox="0 0 25 28" fill="none" xmlns="http://www.w3.org/2000/svg">
<path d="M22.3669 18.3412C24.1134 17.5782 25 15.6462 25 12.6C25 9.55383 24.1134 7.62067 22.3669 6.85767C21.1331 6.31983 19.6366 6.43767 17.8333 7.224C18.6123 5.40633 18.7303 3.89783 18.1968 2.65417C17.4387 0.893667 15.5231 0 12.5 0C9.47685 0 7.56134 0.893667 6.80324 2.65417C6.26968 3.89783 6.38773 5.40633 7.16667 7.224C5.36343 6.43767 3.8669 6.31983 2.6331 6.85767C0.886574 7.62067 0 9.55267 0 12.6C0 15.6473 0.886574 17.5782 2.6331 18.3412C3.15418 18.5655 3.71581 18.6784 4.28241 18.6725C5.14275 18.6725 6.10494 18.4392 7.16898 17.9725C6.39005 19.7913 6.27199 21.2998 6.80556 22.5423C7.56134 24.3063 9.47685 25.2 12.5 25.2C15.5231 25.2 17.4387 24.3063 18.1968 22.5447C18.2669 22.3805 18.3261 22.2117 18.3738 22.0395C19.25 23.5772 19.9942 25.2373 20.412 26.9395C20.4871 27.2424 20.6605 27.5113 20.9046 27.7034C21.1487 27.8956 21.4495 28 21.7593 28C21.8732 27.9997 21.9866 27.9856 22.0972 27.958C22.4545 27.8679 22.7617 27.6385 22.9511 27.3201C23.1406 27.0018 23.1969 26.6207 23.1076 26.2605C22.4132 23.4477 20.9977 20.7877 19.4606 18.522C19.8729 18.6181 20.2944 18.6686 20.7176 18.6725C21.2842 18.6784 21.8458 18.5655 22.3669 18.3412ZM9.35301 3.76717C9.6169 3.15 10.7639 2.8 12.5 2.8C14.2361 2.8 15.3831 3.15 15.647 3.76717C15.7766 4.067 16.0451 5.28383 14.081 8.295C13.5451 9.11167 12.9711 9.87117 12.5 10.4557C12.0289 9.87233 11.4583 9.11633 10.919 8.295C8.95486 5.28033 9.22338 4.067 9.35301 3.76717ZM3.73727 15.7722C3.125 15.5062 2.77778 14.35 2.77778 12.6C2.77778 10.85 3.125 9.69383 3.73727 9.42783C3.9072 9.35974 4.08921 9.32757 4.27199 9.33333C4.91551 9.33333 6.13426 9.61917 8.22917 11.0063C8.96979 11.5009 9.6852 12.0328 10.3727 12.6C9.79398 13.0748 9.04398 13.65 8.22917 14.1937C5.23843 16.1735 4.03472 15.9028 3.73727 15.7722ZM15.647 21.4328C15.3831 22.05 14.2361 22.4 12.5 22.4C10.7639 22.4 9.6169 22.05 9.35301 21.4328C9.22338 21.1318 8.95486 19.9162 10.919 16.905C11.4549 16.0883 12.0289 15.3288 12.5 14.7443C12.9711 15.3277 13.5417 16.0837 14.081 16.905C16.0451 19.9197 15.7766 21.1318 15.647 21.4328ZM16.7708 14.1937C15.9606 13.6535 15.2072 13.0748 14.6273 12.6C15.3148 12.0328 16.0302 11.5009 16.7708 11.0063C19.7616 9.023 20.9653 9.29717 21.2627 9.42783C21.875 9.69383 22.2222 10.85 22.2222 12.6C22.2222 14.35 21.875 15.5062 21.2627 15.7722C20.9653 15.9028 19.7616 16.1735 16.7708 14.1937Z" fill="white"/>
</svg>
