<svg width="23" height="28" viewBox="0 0 23 28" fill="none" xmlns="http://www.w3.org/2000/svg">
<path d="M22.2264 14.8573L17.0385 8.89231C16.6681 8.46533 16.2159 8.11915 15.7096 7.87479C15.2032 7.63042 14.6531 7.49296 14.0928 7.47075C14.7608 6.92632 15.2457 6.18503 15.4807 5.34918C15.7156 4.51333 15.689 3.62412 15.4044 2.80427C15.1199 1.98442 14.5915 1.27436 13.8921 0.77206C13.1928 0.269763 12.3569 0 11.5 0C10.6431 0 9.80723 0.269763 9.10787 0.77206C8.40852 1.27436 7.88011 1.98442 7.59558 2.80427C7.31104 3.62412 7.28441 4.51333 7.51935 5.34918C7.75429 6.18503 8.23922 6.92632 8.90722 7.47075C8.34687 7.49296 7.79682 7.63042 7.29044 7.87479C6.78406 8.11915 6.33192 8.46533 5.96146 8.89231L0.7736 14.8573C0.273638 15.3828 -0.00396592 16.0858 4.28195e-05 16.8161C0.00405156 17.5464 0.289356 18.2462 0.795057 18.7661C1.30076 19.286 1.98679 19.5849 2.70673 19.5988C3.42666 19.6128 4.12346 19.3408 4.6484 18.8409L5.42221 18.2123L3.88149 24.147C3.61243 24.8181 3.61043 25.5688 3.87591 26.2414C4.14139 26.914 4.65366 27.4559 5.305 27.7533C5.95634 28.0507 6.696 28.0804 7.36844 27.836C8.04088 27.5917 8.59371 27.0924 8.91067 26.4431L11.5 21.9196L14.0893 26.4431C14.4029 27.0864 14.9496 27.5816 15.6151 27.8251C16.1164 28.0104 16.66 28.0443 17.1799 27.9227C17.6998 27.8011 18.1739 27.5293 18.5446 27.14C18.9153 26.7508 19.1668 26.261 19.2687 25.7297C19.3706 25.1985 19.3184 24.6487 19.1185 24.147L17.5778 18.2123L18.3516 18.8409C18.8765 19.3408 19.5733 19.6128 20.2933 19.5988C21.0132 19.5849 21.6992 19.286 22.2049 18.7661C22.7106 18.2462 22.9959 17.5464 23 16.8161C23.004 16.0858 22.7264 15.3828 22.2264 14.8573ZM11.5 2.80608C11.7729 2.80608 12.0396 2.88815 12.2665 3.04192C12.4934 3.19569 12.6703 3.41425 12.7747 3.66995C12.8792 3.92566 12.9065 4.20703 12.8532 4.47849C12.8 4.74995 12.6686 4.9993 12.4756 5.19501C12.2827 5.39072 12.0368 5.524 11.7692 5.57799C11.5015 5.63199 11.2241 5.60428 10.972 5.49836C10.7199 5.39244 10.5044 5.21308 10.3528 4.98295C10.2012 4.75282 10.1203 4.48226 10.1203 4.20548C10.1203 3.83434 10.2656 3.47839 10.5244 3.21596C10.7831 2.95352 11.1341 2.80608 11.5 2.80608ZM20.1234 16.6975L16.0394 13.3751C15.8129 13.1909 15.5349 13.0839 15.2449 13.0692C14.955 13.0546 14.6679 13.1331 14.4245 13.2935C14.181 13.454 13.9937 13.6882 13.8892 13.9629C13.7846 14.2376 13.7682 14.5387 13.8421 14.8234L16.4751 24.9633C16.4964 25.0434 16.5244 25.1214 16.5591 25.1965C16.5419 25.1567 16.5227 25.1177 16.5016 25.0799L12.6935 18.4327C12.5722 18.2207 12.3981 18.0446 12.1887 17.9223C11.9792 17.7999 11.7417 17.7355 11.5 17.7355C11.2583 17.7355 11.0208 17.7999 10.8113 17.9223C10.6019 18.0446 10.4278 18.2207 10.3065 18.4327L6.49841 25.0799C6.47726 25.1177 6.45807 25.1567 6.44092 25.1965C6.47506 25.1212 6.50313 25.0432 6.52486 24.9633L9.15443 14.8269C9.22839 14.5422 9.21192 14.2411 9.10737 13.9664C9.00282 13.6917 8.8155 13.4575 8.57209 13.297C8.32868 13.1366 8.04157 13.0581 7.75163 13.0727C7.46168 13.0874 7.18368 13.1944 6.95718 13.3786L2.87657 16.6975C2.83635 16.729 2.79796 16.7629 2.76159 16.7989C2.78229 16.7791 2.80183 16.757 2.82138 16.736L8.03108 10.743C8.16059 10.5942 8.31984 10.475 8.49825 10.3933C8.67667 10.3117 8.87016 10.2695 9.06589 10.2696H13.9341C14.1298 10.2695 14.3233 10.3117 14.5017 10.3933C14.6802 10.475 14.8394 10.5942 14.9689 10.743L20.1798 16.736C20.1993 16.757 20.2189 16.7791 20.2396 16.7989C20.2028 16.7629 20.164 16.729 20.1234 16.6975Z" fill="#0298C7"/>
</svg>
