<svg width="966" height="450" viewBox="0 0 966 450" fill="none" xmlns="http://www.w3.org/2000/svg">
<path d="M49.5 76.5C61.622 130.674 470 15.5 426.5 170C383 324.5 663 321.131 663 327" stroke="#67DBFF" stroke-width="8" stroke-dasharray="16 16"/>
<rect x="10" y="23" width="78" height="78" rx="39" fill="#0298C7"/>
<rect x="10" y="23" width="78" height="78" rx="39" stroke="#67DBFF" stroke-width="4"/>
<path d="M42.16 49V44.008H52.144V79H46.624V49H42.16Z" fill="white"/>
<g filter="url(#filter0_d_292_1427)">
<rect x="106" y="28" width="175" height="68" rx="12" fill="white" shape-rendering="crispEdges"/>
<path d="M131.904 53.728H127.248L126.448 56H124.544L128.528 44.864H130.64L134.624 56H132.704L131.904 53.728ZM131.392 52.24L129.584 47.072L127.76 52.24H131.392ZM139.905 51.584C139.905 50.6773 140.086 49.8827 140.449 49.2C140.822 48.5067 141.334 47.9733 141.985 47.6C142.635 47.2267 143.382 47.04 144.225 47.04C145.291 47.04 146.171 47.296 146.865 47.808C147.569 48.3093 148.043 49.0293 148.289 49.968H146.321C146.161 49.5307 145.905 49.1893 145.553 48.944C145.201 48.6987 144.758 48.576 144.225 48.576C143.478 48.576 142.881 48.8427 142.433 49.376C141.995 49.8987 141.777 50.6347 141.777 51.584C141.777 52.5333 141.995 53.2747 142.433 53.808C142.881 54.3413 143.478 54.608 144.225 54.608C145.281 54.608 145.979 54.144 146.321 53.216H148.289C148.033 54.112 147.553 54.8267 146.849 55.36C146.145 55.8827 145.27 56.144 144.225 56.144C143.382 56.144 142.635 55.9573 141.985 55.584C141.334 55.2 140.822 54.6667 140.449 53.984C140.086 53.2907 139.905 52.4907 139.905 51.584ZM154.666 47.04C155.338 47.04 155.936 47.184 156.458 47.472C156.992 47.76 157.408 48.1867 157.706 48.752C158.016 49.3173 158.17 50 158.17 50.8V56H156.362V51.072C156.362 50.2827 156.165 49.68 155.77 49.264C155.376 48.8373 154.837 48.624 154.154 48.624C153.472 48.624 152.928 48.8373 152.522 49.264C152.128 49.68 151.93 50.2827 151.93 51.072V56H150.106V44.16H151.93V48.208C152.24 47.8347 152.629 47.5467 153.098 47.344C153.578 47.1413 154.101 47.04 154.666 47.04ZM161.425 46.016C161.094 46.016 160.817 45.904 160.593 45.68C160.369 45.456 160.257 45.1787 160.257 44.848C160.257 44.5173 160.369 44.24 160.593 44.016C160.817 43.792 161.094 43.68 161.425 43.68C161.745 43.68 162.017 43.792 162.241 44.016C162.465 44.24 162.577 44.5173 162.577 44.848C162.577 45.1787 162.465 45.456 162.241 45.68C162.017 45.904 161.745 46.016 161.425 46.016ZM162.321 47.184V56H160.497V47.184H162.321ZM166.54 44.16V56H164.716V44.16H166.54ZM168.326 51.552C168.326 50.6667 168.508 49.8827 168.87 49.2C169.244 48.5173 169.745 47.9893 170.374 47.616C171.014 47.232 171.724 47.04 172.502 47.04C173.078 47.04 173.644 47.168 174.198 47.424C174.764 47.6693 175.212 48 175.542 48.416V44.16H177.382V56H175.542V54.672C175.244 55.0987 174.828 55.4507 174.294 55.728C173.772 56.0053 173.169 56.144 172.486 56.144C171.718 56.144 171.014 55.952 170.374 55.568C169.745 55.1733 169.244 54.6293 168.87 53.936C168.508 53.232 168.326 52.4373 168.326 51.552ZM175.542 51.584C175.542 50.976 175.414 50.448 175.158 50C174.913 49.552 174.588 49.2107 174.182 48.976C173.777 48.7413 173.34 48.624 172.87 48.624C172.401 48.624 171.964 48.7413 171.558 48.976C171.153 49.2 170.822 49.536 170.566 49.984C170.321 50.4213 170.198 50.944 170.198 51.552C170.198 52.16 170.321 52.6933 170.566 53.152C170.822 53.6107 171.153 53.9627 171.558 54.208C171.974 54.4427 172.412 54.56 172.87 54.56C173.34 54.56 173.777 54.4427 174.182 54.208C174.588 53.9733 174.913 53.632 175.158 53.184C175.414 52.7253 175.542 52.192 175.542 51.584Z" fill="#0298C7"/>
<path d="M185.422 44.16V56H183.966V44.16H185.422ZM195.904 51.28C195.904 51.5573 195.888 51.8507 195.856 52.16H188.848C188.901 53.024 189.195 53.7013 189.728 54.192C190.272 54.672 190.928 54.912 191.696 54.912C192.325 54.912 192.848 54.768 193.264 54.48C193.691 54.1813 193.989 53.7867 194.16 53.296H195.728C195.493 54.1387 195.024 54.8267 194.32 55.36C193.616 55.8827 192.741 56.144 191.696 56.144C190.864 56.144 190.117 55.9573 189.456 55.584C188.805 55.2107 188.293 54.6827 187.92 54C187.547 53.3067 187.36 52.5067 187.36 51.6C187.36 50.6933 187.541 49.8987 187.904 49.216C188.267 48.5333 188.773 48.0107 189.424 47.648C190.085 47.2747 190.843 47.088 191.696 47.088C192.528 47.088 193.264 47.2693 193.904 47.632C194.544 47.9947 195.035 48.496 195.376 49.136C195.728 49.7653 195.904 50.48 195.904 51.28ZM194.4 50.976C194.4 50.4213 194.277 49.9467 194.032 49.552C193.787 49.1467 193.451 48.8427 193.024 48.64C192.608 48.4267 192.144 48.32 191.632 48.32C190.896 48.32 190.267 48.5547 189.744 49.024C189.232 49.4933 188.939 50.144 188.864 50.976H194.4ZM197.282 51.584C197.282 50.688 197.463 49.904 197.826 49.232C198.188 48.5493 198.684 48.0213 199.314 47.648C199.954 47.2747 200.663 47.088 201.442 47.088C202.21 47.088 202.876 47.2533 203.442 47.584C204.007 47.9147 204.428 48.3307 204.706 48.832V47.232H206.178V56H204.706V54.368C204.418 54.88 203.986 55.3067 203.41 55.648C202.844 55.9787 202.183 56.144 201.426 56.144C200.647 56.144 199.943 55.952 199.314 55.568C198.684 55.184 198.188 54.6453 197.826 53.952C197.463 53.2587 197.282 52.4693 197.282 51.584ZM204.706 51.6C204.706 50.9387 204.572 50.3627 204.306 49.872C204.039 49.3813 203.676 49.008 203.218 48.752C202.77 48.4853 202.274 48.352 201.73 48.352C201.186 48.352 200.69 48.48 200.242 48.736C199.794 48.992 199.436 49.3653 199.17 49.856C198.903 50.3467 198.77 50.9227 198.77 51.584C198.77 52.256 198.903 52.8427 199.17 53.344C199.436 53.8347 199.794 54.2133 200.242 54.48C200.69 54.736 201.186 54.864 201.73 54.864C202.274 54.864 202.77 54.736 203.218 54.48C203.676 54.2133 204.039 53.8347 204.306 53.344C204.572 52.8427 204.706 52.2613 204.706 51.6ZM210.094 48.656C210.35 48.1547 210.713 47.7653 211.182 47.488C211.662 47.2107 212.244 47.072 212.926 47.072V48.576H212.542C210.91 48.576 210.094 49.4613 210.094 51.232V56H208.638V47.232H210.094V48.656ZM218.879 47.072C219.946 47.072 220.81 47.3973 221.471 48.048C222.132 48.688 222.463 49.616 222.463 50.832V56H221.023V51.04C221.023 50.1653 220.804 49.4987 220.367 49.04C219.93 48.5707 219.332 48.336 218.575 48.336C217.807 48.336 217.194 48.576 216.735 49.056C216.287 49.536 216.063 50.2347 216.063 51.152V56H214.607V47.232H216.063V48.48C216.351 48.032 216.74 47.6853 217.231 47.44C217.732 47.1947 218.282 47.072 218.879 47.072ZM225.593 45.808C225.316 45.808 225.081 45.712 224.889 45.52C224.697 45.328 224.601 45.0933 224.601 44.816C224.601 44.5387 224.697 44.304 224.889 44.112C225.081 43.92 225.316 43.824 225.593 43.824C225.86 43.824 226.084 43.92 226.265 44.112C226.457 44.304 226.553 44.5387 226.553 44.816C226.553 45.0933 226.457 45.328 226.265 45.52C226.084 45.712 225.86 45.808 225.593 45.808ZM226.297 47.232V56H224.841V47.232H226.297ZM233.051 47.072C234.118 47.072 234.982 47.3973 235.643 48.048C236.304 48.688 236.635 49.616 236.635 50.832V56H235.195V51.04C235.195 50.1653 234.976 49.4987 234.539 49.04C234.102 48.5707 233.504 48.336 232.747 48.336C231.979 48.336 231.366 48.576 230.907 49.056C230.459 49.536 230.235 50.2347 230.235 51.152V56H228.779V47.232H230.235V48.48C230.523 48.032 230.912 47.6853 231.403 47.44C231.904 47.1947 232.454 47.072 233.051 47.072ZM242.629 47.088C243.387 47.088 244.048 47.2533 244.613 47.584C245.189 47.9147 245.616 48.3307 245.893 48.832V47.232H247.365V56.192C247.365 56.992 247.195 57.7013 246.853 58.32C246.512 58.9493 246.021 59.44 245.381 59.792C244.752 60.144 244.016 60.32 243.173 60.32C242.021 60.32 241.061 60.048 240.293 59.504C239.525 58.96 239.072 58.2187 238.933 57.28H240.373C240.533 57.8133 240.864 58.24 241.365 58.56C241.867 58.8907 242.469 59.056 243.173 59.056C243.973 59.056 244.624 58.8053 245.125 58.304C245.637 57.8027 245.893 57.0987 245.893 56.192V54.352C245.605 54.864 245.179 55.2907 244.613 55.632C244.048 55.9733 243.387 56.144 242.629 56.144C241.851 56.144 241.141 55.952 240.501 55.568C239.872 55.184 239.376 54.6453 239.013 53.952C238.651 53.2587 238.469 52.4693 238.469 51.584C238.469 50.688 238.651 49.904 239.013 49.232C239.376 48.5493 239.872 48.0213 240.501 47.648C241.141 47.2747 241.851 47.088 242.629 47.088ZM245.893 51.6C245.893 50.9387 245.76 50.3627 245.493 49.872C245.227 49.3813 244.864 49.008 244.405 48.752C243.957 48.4853 243.461 48.352 242.917 48.352C242.373 48.352 241.877 48.48 241.429 48.736C240.981 48.992 240.624 49.3653 240.357 49.856C240.091 50.3467 239.957 50.9227 239.957 51.584C239.957 52.256 240.091 52.8427 240.357 53.344C240.624 53.8347 240.981 54.2133 241.429 54.48C241.877 54.736 242.373 54.864 242.917 54.864C243.461 54.864 243.957 54.736 244.405 54.48C244.864 54.2133 245.227 53.8347 245.493 53.344C245.76 52.8427 245.893 52.2613 245.893 51.6ZM127.008 72.432V77.6C127.008 78.0267 127.099 78.3307 127.28 78.512C127.461 78.6827 127.776 78.768 128.224 78.768H129.296V80H127.984C127.173 80 126.565 79.8133 126.16 79.44C125.755 79.0667 125.552 78.4533 125.552 77.6V72.432H124.416V71.232H125.552V69.024H127.008V71.232H129.296V72.432H127.008ZM134.884 80.144C134.063 80.144 133.316 79.9573 132.644 79.584C131.983 79.2107 131.46 78.6827 131.076 78C130.703 77.3067 130.516 76.5067 130.516 75.6C130.516 74.704 130.708 73.9147 131.092 73.232C131.487 72.5387 132.02 72.0107 132.692 71.648C133.364 71.2747 134.116 71.088 134.948 71.088C135.78 71.088 136.532 71.2747 137.204 71.648C137.876 72.0107 138.404 72.5333 138.788 73.216C139.183 73.8987 139.38 74.6933 139.38 75.6C139.38 76.5067 139.177 77.3067 138.772 78C138.377 78.6827 137.839 79.2107 137.156 79.584C136.473 79.9573 135.716 80.144 134.884 80.144ZM134.884 78.864C135.407 78.864 135.897 78.7413 136.356 78.496C136.815 78.2507 137.183 77.8827 137.46 77.392C137.748 76.9013 137.892 76.304 137.892 75.6C137.892 74.896 137.753 74.2987 137.476 73.808C137.199 73.3173 136.836 72.9547 136.388 72.72C135.94 72.4747 135.455 72.352 134.932 72.352C134.399 72.352 133.908 72.4747 133.46 72.72C133.023 72.9547 132.671 73.3173 132.404 73.808C132.137 74.2987 132.004 74.896 132.004 75.6C132.004 76.3147 132.132 76.9173 132.388 77.408C132.655 77.8987 133.007 78.2667 133.444 78.512C133.881 78.7467 134.361 78.864 134.884 78.864ZM153.56 75.28C153.56 75.5573 153.544 75.8507 153.512 76.16H146.504C146.557 77.024 146.851 77.7013 147.384 78.192C147.928 78.672 148.584 78.912 149.352 78.912C149.981 78.912 150.504 78.768 150.92 78.48C151.347 78.1813 151.645 77.7867 151.816 77.296H153.384C153.149 78.1387 152.68 78.8267 151.976 79.36C151.272 79.8827 150.397 80.144 149.352 80.144C148.52 80.144 147.773 79.9573 147.112 79.584C146.461 79.2107 145.949 78.6827 145.576 78C145.203 77.3067 145.016 76.5067 145.016 75.6C145.016 74.6933 145.197 73.8987 145.56 73.216C145.923 72.5333 146.429 72.0107 147.08 71.648C147.741 71.2747 148.499 71.088 149.352 71.088C150.184 71.088 150.92 71.2693 151.56 71.632C152.2 71.9947 152.691 72.496 153.032 73.136C153.384 73.7653 153.56 74.48 153.56 75.28ZM152.056 74.976C152.056 74.4213 151.933 73.9467 151.688 73.552C151.443 73.1467 151.107 72.8427 150.68 72.64C150.264 72.4267 149.8 72.32 149.288 72.32C148.552 72.32 147.923 72.5547 147.4 73.024C146.888 73.4933 146.595 74.144 146.52 74.976H152.056ZM160.058 80L157.978 76.736L155.978 80H154.458L157.29 75.648L154.458 71.232H156.106L158.186 74.48L160.17 71.232H161.69L158.874 75.568L161.706 80H160.058ZM164.594 72.848C164.882 72.3467 165.309 71.9307 165.874 71.6C166.45 71.2587 167.117 71.088 167.874 71.088C168.653 71.088 169.357 71.2747 169.986 71.648C170.626 72.0213 171.128 72.5493 171.49 73.232C171.853 73.904 172.034 74.688 172.034 75.584C172.034 76.4693 171.853 77.2587 171.49 77.952C171.128 78.6453 170.626 79.184 169.986 79.568C169.357 79.952 168.653 80.144 167.874 80.144C167.128 80.144 166.466 79.9787 165.89 79.648C165.325 79.3067 164.893 78.8853 164.594 78.384V84.16H163.138V71.232H164.594V72.848ZM170.546 75.584C170.546 74.9227 170.413 74.3467 170.146 73.856C169.88 73.3653 169.517 72.992 169.058 72.736C168.61 72.48 168.114 72.352 167.57 72.352C167.037 72.352 166.541 72.4853 166.082 72.752C165.634 73.008 165.272 73.3867 164.994 73.888C164.728 74.3787 164.594 74.9493 164.594 75.6C164.594 76.2613 164.728 76.8427 164.994 77.344C165.272 77.8347 165.634 78.2133 166.082 78.48C166.541 78.736 167.037 78.864 167.57 78.864C168.114 78.864 168.61 78.736 169.058 78.48C169.517 78.2133 169.88 77.8347 170.146 77.344C170.413 76.8427 170.546 76.256 170.546 75.584ZM175.407 72.656C175.663 72.1547 176.025 71.7653 176.495 71.488C176.975 71.2107 177.556 71.072 178.239 71.072V72.576H177.855C176.223 72.576 175.407 73.4613 175.407 75.232V80H173.951V71.232H175.407V72.656ZM187.92 75.28C187.92 75.5573 187.904 75.8507 187.872 76.16H180.864C180.917 77.024 181.21 77.7013 181.744 78.192C182.288 78.672 182.944 78.912 183.712 78.912C184.341 78.912 184.864 78.768 185.28 78.48C185.706 78.1813 186.005 77.7867 186.176 77.296H187.744C187.509 78.1387 187.04 78.8267 186.336 79.36C185.632 79.8827 184.757 80.144 183.712 80.144C182.88 80.144 182.133 79.9573 181.472 79.584C180.821 79.2107 180.309 78.6827 179.936 78C179.562 77.3067 179.376 76.5067 179.376 75.6C179.376 74.6933 179.557 73.8987 179.92 73.216C180.282 72.5333 180.789 72.0107 181.44 71.648C182.101 71.2747 182.858 71.088 183.712 71.088C184.544 71.088 185.28 71.2693 185.92 71.632C186.56 71.9947 187.05 72.496 187.392 73.136C187.744 73.7653 187.92 74.48 187.92 75.28ZM186.416 74.976C186.416 74.4213 186.293 73.9467 186.048 73.552C185.802 73.1467 185.466 72.8427 185.04 72.64C184.624 72.4267 184.16 72.32 183.648 72.32C182.912 72.32 182.282 72.5547 181.76 73.024C181.248 73.4933 180.954 74.144 180.88 74.976H186.416ZM192.945 80.144C192.273 80.144 191.671 80.032 191.137 79.808C190.604 79.5733 190.183 79.2533 189.873 78.848C189.564 78.432 189.393 77.9573 189.361 77.424H190.865C190.908 77.8613 191.111 78.2187 191.473 78.496C191.847 78.7733 192.332 78.912 192.929 78.912C193.484 78.912 193.921 78.7893 194.241 78.544C194.561 78.2987 194.721 77.9893 194.721 77.616C194.721 77.232 194.551 76.9493 194.209 76.768C193.868 76.576 193.34 76.3893 192.625 76.208C191.975 76.0373 191.441 75.8667 191.025 75.696C190.62 75.5147 190.268 75.2533 189.969 74.912C189.681 74.56 189.537 74.1013 189.537 73.536C189.537 73.088 189.671 72.6773 189.937 72.304C190.204 71.9307 190.583 71.6373 191.073 71.424C191.564 71.2 192.124 71.088 192.753 71.088C193.724 71.088 194.508 71.3333 195.105 71.824C195.703 72.3147 196.023 72.9867 196.065 73.84H194.609C194.577 73.3813 194.391 73.0133 194.049 72.736C193.719 72.4587 193.271 72.32 192.705 72.32C192.183 72.32 191.767 72.432 191.457 72.656C191.148 72.88 190.993 73.1733 190.993 73.536C190.993 73.824 191.084 74.064 191.265 74.256C191.457 74.4373 191.692 74.5867 191.969 74.704C192.257 74.8107 192.652 74.9333 193.153 75.072C193.783 75.2427 194.295 75.4133 194.689 75.584C195.084 75.744 195.42 75.9893 195.697 76.32C195.985 76.6507 196.135 77.0827 196.145 77.616C196.145 78.096 196.012 78.528 195.745 78.912C195.479 79.296 195.1 79.6 194.609 79.824C194.129 80.0373 193.575 80.144 192.945 80.144ZM201.305 80.144C200.633 80.144 200.03 80.032 199.497 79.808C198.963 79.5733 198.542 79.2533 198.233 78.848C197.923 78.432 197.753 77.9573 197.721 77.424H199.225C199.267 77.8613 199.47 78.2187 199.833 78.496C200.206 78.7733 200.691 78.912 201.289 78.912C201.843 78.912 202.281 78.7893 202.601 78.544C202.921 78.2987 203.081 77.9893 203.081 77.616C203.081 77.232 202.91 76.9493 202.569 76.768C202.227 76.576 201.699 76.3893 200.985 76.208C200.334 76.0373 199.801 75.8667 199.385 75.696C198.979 75.5147 198.627 75.2533 198.329 74.912C198.041 74.56 197.897 74.1013 197.897 73.536C197.897 73.088 198.03 72.6773 198.297 72.304C198.563 71.9307 198.942 71.6373 199.433 71.424C199.923 71.2 200.483 71.088 201.113 71.088C202.083 71.088 202.867 71.3333 203.465 71.824C204.062 72.3147 204.382 72.9867 204.425 73.84H202.969C202.937 73.3813 202.75 73.0133 202.409 72.736C202.078 72.4587 201.63 72.32 201.065 72.32C200.542 72.32 200.126 72.432 199.817 72.656C199.507 72.88 199.353 73.1733 199.353 73.536C199.353 73.824 199.443 74.064 199.625 74.256C199.817 74.4373 200.051 74.5867 200.329 74.704C200.617 74.8107 201.011 74.9333 201.513 75.072C202.142 75.2427 202.654 75.4133 203.049 75.584C203.443 75.744 203.779 75.9893 204.057 76.32C204.345 76.6507 204.494 77.0827 204.505 77.616C204.505 78.096 204.371 78.528 204.105 78.912C203.838 79.296 203.459 79.6 202.969 79.824C202.489 80.0373 201.934 80.144 201.305 80.144ZM210.282 75.6C210.282 74.6933 210.463 73.904 210.826 73.232C211.188 72.5493 211.69 72.0213 212.33 71.648C212.98 71.2747 213.722 71.088 214.554 71.088C215.631 71.088 216.516 71.3493 217.21 71.872C217.914 72.3947 218.378 73.12 218.602 74.048H217.034C216.884 73.5147 216.591 73.0933 216.154 72.784C215.727 72.4747 215.194 72.32 214.554 72.32C213.722 72.32 213.05 72.608 212.538 73.184C212.026 73.7493 211.77 74.5547 211.77 75.6C211.77 76.656 212.026 77.472 212.538 78.048C213.05 78.624 213.722 78.912 214.554 78.912C215.194 78.912 215.727 78.7627 216.154 78.464C216.58 78.1653 216.874 77.7387 217.034 77.184H218.602C218.367 78.08 217.898 78.8 217.194 79.344C216.49 79.8773 215.61 80.144 214.554 80.144C213.722 80.144 212.98 79.9573 212.33 79.584C211.69 79.2107 211.188 78.6827 210.826 78C210.463 77.3173 210.282 76.5173 210.282 75.6ZM222.001 68.16V80H220.545V68.16H222.001ZM232.482 75.28C232.482 75.5573 232.466 75.8507 232.434 76.16H225.426C225.479 77.024 225.773 77.7013 226.306 78.192C226.85 78.672 227.506 78.912 228.274 78.912C228.903 78.912 229.426 78.768 229.842 78.48C230.269 78.1813 230.567 77.7867 230.738 77.296H232.306C232.071 78.1387 231.602 78.8267 230.898 79.36C230.194 79.8827 229.319 80.144 228.274 80.144C227.442 80.144 226.695 79.9573 226.034 79.584C225.383 79.2107 224.871 78.6827 224.498 78C224.125 77.3067 223.938 76.5067 223.938 75.6C223.938 74.6933 224.119 73.8987 224.482 73.216C224.845 72.5333 225.351 72.0107 226.002 71.648C226.663 71.2747 227.421 71.088 228.274 71.088C229.106 71.088 229.842 71.2693 230.482 71.632C231.122 71.9947 231.613 72.496 231.954 73.136C232.306 73.7653 232.482 74.48 232.482 75.28ZM230.978 74.976C230.978 74.4213 230.855 73.9467 230.61 73.552C230.365 73.1467 230.029 72.8427 229.602 72.64C229.186 72.4267 228.722 72.32 228.21 72.32C227.474 72.32 226.845 72.5547 226.322 73.024C225.81 73.4933 225.517 74.144 225.442 74.976H230.978ZM233.86 75.584C233.86 74.688 234.041 73.904 234.404 73.232C234.767 72.5493 235.263 72.0213 235.892 71.648C236.532 71.2747 237.241 71.088 238.02 71.088C238.788 71.088 239.455 71.2533 240.02 71.584C240.585 71.9147 241.007 72.3307 241.284 72.832V71.232H242.756V80H241.284V78.368C240.996 78.88 240.564 79.3067 239.988 79.648C239.423 79.9787 238.761 80.144 238.004 80.144C237.225 80.144 236.521 79.952 235.892 79.568C235.263 79.184 234.767 78.6453 234.404 77.952C234.041 77.2587 233.86 76.4693 233.86 75.584ZM241.284 75.6C241.284 74.9387 241.151 74.3627 240.884 73.872C240.617 73.3813 240.255 73.008 239.796 72.752C239.348 72.4853 238.852 72.352 238.308 72.352C237.764 72.352 237.268 72.48 236.82 72.736C236.372 72.992 236.015 73.3653 235.748 73.856C235.481 74.3467 235.348 74.9227 235.348 75.584C235.348 76.256 235.481 76.8427 235.748 77.344C236.015 77.8347 236.372 78.2133 236.82 78.48C237.268 78.736 237.764 78.864 238.308 78.864C238.852 78.864 239.348 78.736 239.796 78.48C240.255 78.2133 240.617 77.8347 240.884 77.344C241.151 76.8427 241.284 76.2613 241.284 75.6ZM246.672 72.656C246.928 72.1547 247.291 71.7653 247.76 71.488C248.24 71.2107 248.822 71.072 249.504 71.072V72.576H249.12C247.488 72.576 246.672 73.4613 246.672 75.232V80H245.216V71.232H246.672V72.656ZM252.641 68.16V80H251.185V68.16H252.641ZM262.675 71.232L257.395 84.128H255.891L257.619 79.904L254.083 71.232H255.699L258.451 78.336L261.171 71.232H262.675Z" fill="#1D1D1D" fill-opacity="0.8"/>
<path d="M97.0534 39.9802C95.9909 38.8659 96.5332 37.0193 98.0294 36.6564L113.179 32.9818C114.675 32.6189 116.003 34.0118 115.569 35.489L111.177 50.4458C110.743 51.9231 108.873 52.3767 107.81 51.2624L97.0534 39.9802Z" fill="white"/>
</g>
<rect x="639" y="293" width="78" height="78" rx="39" fill="#0298C7"/>
<rect x="639" y="293" width="78" height="78" rx="39" stroke="#67DBFF" stroke-width="4"/>
<path d="M665.784 322.648C665.976 319.672 667.112 317.352 669.192 315.688C671.304 314.024 673.992 313.192 677.256 313.192C679.496 313.192 681.432 313.592 683.064 314.392C684.696 315.192 685.928 316.28 686.76 317.656C687.592 319.032 688.008 320.584 688.008 322.312C688.008 324.296 687.48 325.992 686.424 327.4C685.368 328.808 684.104 329.752 682.632 330.232V330.424C684.52 331 685.992 332.056 687.048 333.592C688.104 335.096 688.632 337.032 688.632 339.4C688.632 341.288 688.2 342.968 687.336 344.44C686.472 345.912 685.192 347.08 683.496 347.944C681.8 348.776 679.768 349.192 677.4 349.192C673.944 349.192 671.096 348.312 668.856 346.552C666.648 344.76 665.464 342.2 665.304 338.872H670.584C670.712 340.568 671.368 341.96 672.552 343.048C673.736 344.104 675.336 344.632 677.352 344.632C679.304 344.632 680.808 344.104 681.864 343.048C682.92 341.96 683.448 340.568 683.448 338.872C683.448 336.632 682.728 335.048 681.288 334.12C679.88 333.16 677.704 332.68 674.76 332.68H673.512V328.168H674.808C677.4 328.136 679.368 327.704 680.712 326.872C682.088 326.04 682.776 324.728 682.776 322.936C682.776 321.4 682.28 320.184 681.288 319.288C680.296 318.36 678.888 317.896 677.064 317.896C675.272 317.896 673.88 318.36 672.888 319.288C671.896 320.184 671.304 321.304 671.112 322.648H665.784Z" fill="white"/>
<g filter="url(#filter1_d_292_1427)">
<rect x="735" y="298" width="227" height="68" rx="12" fill="white" shape-rendering="crispEdges"/>
<path d="M760.904 323.728H756.248L755.448 326H753.544L757.528 314.864H759.64L763.624 326H761.704L760.904 323.728ZM760.392 322.24L758.584 317.072L756.76 322.24H760.392ZM769.804 317.04C770.498 317.04 771.116 317.184 771.66 317.472C772.215 317.76 772.647 318.187 772.956 318.752C773.266 319.317 773.42 320 773.42 320.8V326H771.612V321.072C771.612 320.283 771.415 319.68 771.02 319.264C770.626 318.837 770.087 318.624 769.404 318.624C768.722 318.624 768.178 318.837 767.772 319.264C767.378 319.68 767.18 320.283 767.18 321.072V326H765.356V317.184H767.18V318.192C767.479 317.829 767.858 317.547 768.316 317.344C768.786 317.141 769.282 317.04 769.804 317.04ZM779.295 321.552C779.295 320.667 779.476 319.883 779.839 319.2C780.212 318.517 780.714 317.989 781.343 317.616C781.983 317.232 782.687 317.04 783.455 317.04C784.148 317.04 784.751 317.179 785.263 317.456C785.786 317.723 786.202 318.059 786.511 318.464V317.184H788.351V326H786.511V324.688C786.202 325.104 785.78 325.451 785.247 325.728C784.714 326.005 784.106 326.144 783.423 326.144C782.666 326.144 781.972 325.952 781.343 325.568C780.714 325.173 780.212 324.629 779.839 323.936C779.476 323.232 779.295 322.437 779.295 321.552ZM786.511 321.584C786.511 320.976 786.383 320.448 786.127 320C785.882 319.552 785.556 319.211 785.151 318.976C784.746 318.741 784.308 318.624 783.839 318.624C783.37 318.624 782.932 318.741 782.527 318.976C782.122 319.2 781.791 319.536 781.535 319.984C781.29 320.421 781.167 320.944 781.167 321.552C781.167 322.16 781.29 322.693 781.535 323.152C781.791 323.611 782.122 323.963 782.527 324.208C782.943 324.443 783.38 324.56 783.839 324.56C784.308 324.56 784.746 324.443 785.151 324.208C785.556 323.973 785.882 323.632 786.127 323.184C786.383 322.725 786.511 322.192 786.511 321.584ZM790.139 321.552C790.139 320.667 790.32 319.883 790.683 319.2C791.056 318.517 791.558 317.989 792.187 317.616C792.827 317.232 793.536 317.04 794.315 317.04C794.891 317.04 795.456 317.168 796.011 317.424C796.576 317.669 797.024 318 797.355 318.416V314.16H799.195V326H797.355V324.672C797.056 325.099 796.64 325.451 796.107 325.728C795.584 326.005 794.982 326.144 794.299 326.144C793.531 326.144 792.827 325.952 792.187 325.568C791.558 325.173 791.056 324.629 790.683 323.936C790.32 323.232 790.139 322.437 790.139 321.552ZM797.355 321.584C797.355 320.976 797.227 320.448 796.971 320C796.726 319.552 796.4 319.211 795.995 318.976C795.59 318.741 795.152 318.624 794.683 318.624C794.214 318.624 793.776 318.741 793.371 318.976C792.966 319.2 792.635 319.536 792.379 319.984C792.134 320.421 792.011 320.944 792.011 321.552C792.011 322.16 792.134 322.693 792.379 323.152C792.635 323.611 792.966 323.963 793.371 324.208C793.787 324.443 794.224 324.56 794.683 324.56C795.152 324.56 795.59 324.443 795.995 324.208C796.4 323.973 796.726 323.632 796.971 323.184C797.227 322.725 797.355 322.192 797.355 321.584ZM809.575 317.184V326H807.751V324.96C807.463 325.323 807.084 325.611 806.615 325.824C806.156 326.027 805.665 326.128 805.143 326.128C804.449 326.128 803.825 325.984 803.271 325.696C802.727 325.408 802.295 324.981 801.975 324.416C801.665 323.851 801.511 323.168 801.511 322.368V317.184H803.319V322.096C803.319 322.885 803.516 323.493 803.911 323.92C804.305 324.336 804.844 324.544 805.527 324.544C806.209 324.544 806.748 324.336 807.143 323.92C807.548 323.493 807.751 322.885 807.751 322.096V317.184H809.575ZM813.805 314.16V326H811.981V314.16H813.805ZM818.328 318.672V323.552C818.328 323.883 818.403 324.123 818.552 324.272C818.712 324.411 818.979 324.48 819.352 324.48H820.472V326H819.032C818.211 326 817.581 325.808 817.144 325.424C816.707 325.04 816.488 324.416 816.488 323.552V318.672H815.448V317.184H816.488V314.992H818.328V317.184H820.472V318.672H818.328Z" fill="#0298C7"/>
<path d="M838.131 317.232L835.395 326H833.891L831.779 319.04L829.667 326H828.163L825.411 317.232H826.899L828.915 324.592L831.091 317.232H832.579L834.707 324.608L836.691 317.232H838.131ZM843.928 317.072C844.589 317.072 845.186 317.216 845.72 317.504C846.253 317.781 846.669 318.203 846.968 318.768C847.277 319.333 847.432 320.021 847.432 320.832V326H845.992V321.04C845.992 320.165 845.773 319.499 845.336 319.04C844.898 318.571 844.301 318.336 843.544 318.336C842.776 318.336 842.162 318.576 841.704 319.056C841.256 319.536 841.032 320.235 841.032 321.152V326H839.576V314.16H841.032V318.48C841.32 318.032 841.714 317.685 842.216 317.44C842.728 317.195 843.298 317.072 843.928 317.072ZM853.634 326.144C852.813 326.144 852.066 325.957 851.394 325.584C850.733 325.211 850.21 324.683 849.826 324C849.453 323.307 849.266 322.507 849.266 321.6C849.266 320.704 849.458 319.915 849.842 319.232C850.237 318.539 850.77 318.011 851.442 317.648C852.114 317.275 852.866 317.088 853.698 317.088C854.53 317.088 855.282 317.275 855.954 317.648C856.626 318.011 857.154 318.533 857.538 319.216C857.933 319.899 858.13 320.693 858.13 321.6C858.13 322.507 857.927 323.307 857.522 324C857.127 324.683 856.589 325.211 855.906 325.584C855.223 325.957 854.466 326.144 853.634 326.144ZM853.634 324.864C854.157 324.864 854.647 324.741 855.106 324.496C855.565 324.251 855.933 323.883 856.21 323.392C856.498 322.901 856.642 322.304 856.642 321.6C856.642 320.896 856.503 320.299 856.226 319.808C855.949 319.317 855.586 318.955 855.138 318.72C854.69 318.475 854.205 318.352 853.682 318.352C853.149 318.352 852.658 318.475 852.21 318.72C851.773 318.955 851.421 319.317 851.154 319.808C850.887 320.299 850.754 320.896 850.754 321.6C850.754 322.315 850.882 322.917 851.138 323.408C851.405 323.899 851.757 324.267 852.194 324.512C852.631 324.747 853.111 324.864 853.634 324.864ZM863.766 321.6C863.766 320.693 863.947 319.904 864.31 319.232C864.673 318.549 865.174 318.021 865.814 317.648C866.465 317.275 867.206 317.088 868.038 317.088C869.115 317.088 870.001 317.349 870.694 317.872C871.398 318.395 871.862 319.12 872.086 320.048H870.518C870.369 319.515 870.075 319.093 869.638 318.784C869.211 318.475 868.678 318.32 868.038 318.32C867.206 318.32 866.534 318.608 866.022 319.184C865.51 319.749 865.254 320.555 865.254 321.6C865.254 322.656 865.51 323.472 866.022 324.048C866.534 324.624 867.206 324.912 868.038 324.912C868.678 324.912 869.211 324.763 869.638 324.464C870.065 324.165 870.358 323.739 870.518 323.184H872.086C871.851 324.08 871.382 324.8 870.678 325.344C869.974 325.877 869.094 326.144 868.038 326.144C867.206 326.144 866.465 325.957 865.814 325.584C865.174 325.211 864.673 324.683 864.31 324C863.947 323.317 863.766 322.517 863.766 321.6ZM873.485 321.584C873.485 320.688 873.666 319.904 874.029 319.232C874.392 318.549 874.888 318.021 875.517 317.648C876.157 317.275 876.866 317.088 877.645 317.088C878.413 317.088 879.08 317.253 879.645 317.584C880.21 317.915 880.632 318.331 880.909 318.832V317.232H882.381V326H880.909V324.368C880.621 324.88 880.189 325.307 879.613 325.648C879.048 325.979 878.386 326.144 877.629 326.144C876.85 326.144 876.146 325.952 875.517 325.568C874.888 325.184 874.392 324.645 874.029 323.952C873.666 323.259 873.485 322.469 873.485 321.584ZM880.909 321.6C880.909 320.939 880.776 320.363 880.509 319.872C880.242 319.381 879.88 319.008 879.421 318.752C878.973 318.485 878.477 318.352 877.933 318.352C877.389 318.352 876.893 318.48 876.445 318.736C875.997 318.992 875.64 319.365 875.373 319.856C875.106 320.347 874.973 320.923 874.973 321.584C874.973 322.256 875.106 322.843 875.373 323.344C875.64 323.835 875.997 324.213 876.445 324.48C876.893 324.736 877.389 324.864 877.933 324.864C878.477 324.864 878.973 324.736 879.421 324.48C879.88 324.213 880.242 323.835 880.509 323.344C880.776 322.843 880.909 322.261 880.909 321.6ZM889.113 317.072C890.18 317.072 891.044 317.397 891.705 318.048C892.367 318.688 892.697 319.616 892.697 320.832V326H891.257V321.04C891.257 320.165 891.039 319.499 890.601 319.04C890.164 318.571 889.567 318.336 888.809 318.336C888.041 318.336 887.428 318.576 886.969 319.056C886.521 319.536 886.297 320.235 886.297 321.152V326H884.841V317.232H886.297V318.48C886.585 318.032 886.975 317.685 887.465 317.44C887.967 317.195 888.516 317.072 889.113 317.072ZM909.885 317.072C910.568 317.072 911.176 317.216 911.709 317.504C912.243 317.781 912.664 318.203 912.973 318.768C913.283 319.333 913.437 320.021 913.437 320.832V326H911.997V321.04C911.997 320.165 911.779 319.499 911.341 319.04C910.915 318.571 910.333 318.336 909.597 318.336C908.84 318.336 908.237 318.581 907.789 319.072C907.341 319.552 907.117 320.251 907.117 321.168V326H905.677V321.04C905.677 320.165 905.459 319.499 905.021 319.04C904.595 318.571 904.013 318.336 903.277 318.336C902.52 318.336 901.917 318.581 901.469 319.072C901.021 319.552 900.797 320.251 900.797 321.168V326H899.341V317.232H900.797V318.496C901.085 318.037 901.469 317.685 901.949 317.44C902.44 317.195 902.979 317.072 903.565 317.072C904.301 317.072 904.952 317.237 905.517 317.568C906.083 317.899 906.504 318.384 906.781 319.024C907.027 318.405 907.432 317.925 907.997 317.584C908.563 317.243 909.192 317.072 909.885 317.072ZM915.282 321.584C915.282 320.688 915.463 319.904 915.826 319.232C916.188 318.549 916.684 318.021 917.314 317.648C917.954 317.275 918.663 317.088 919.442 317.088C920.21 317.088 920.876 317.253 921.442 317.584C922.007 317.915 922.428 318.331 922.706 318.832V317.232H924.178V326H922.706V324.368C922.418 324.88 921.986 325.307 921.41 325.648C920.844 325.979 920.183 326.144 919.426 326.144C918.647 326.144 917.943 325.952 917.314 325.568C916.684 325.184 916.188 324.645 915.826 323.952C915.463 323.259 915.282 322.469 915.282 321.584ZM922.706 321.6C922.706 320.939 922.572 320.363 922.306 319.872C922.039 319.381 921.676 319.008 921.218 318.752C920.77 318.485 920.274 318.352 919.73 318.352C919.186 318.352 918.69 318.48 918.242 318.736C917.794 318.992 917.436 319.365 917.17 319.856C916.903 320.347 916.77 320.923 916.77 321.584C916.77 322.256 916.903 322.843 917.17 323.344C917.436 323.835 917.794 324.213 918.242 324.48C918.69 324.736 919.186 324.864 919.73 324.864C920.274 324.864 920.77 324.736 921.218 324.48C921.676 324.213 922.039 323.835 922.306 323.344C922.572 322.843 922.706 322.261 922.706 321.6ZM931.534 326L928.094 322.128V326H926.638V314.16H928.094V321.12L931.47 317.232H933.502L929.374 321.6L933.518 326H931.534ZM942.873 321.28C942.873 321.557 942.857 321.851 942.825 322.16H935.817C935.87 323.024 936.163 323.701 936.697 324.192C937.241 324.672 937.897 324.912 938.665 324.912C939.294 324.912 939.817 324.768 940.233 324.48C940.659 324.181 940.958 323.787 941.129 323.296H942.697C942.462 324.139 941.993 324.827 941.289 325.36C940.585 325.883 939.71 326.144 938.665 326.144C937.833 326.144 937.086 325.957 936.425 325.584C935.774 325.211 935.262 324.683 934.889 324C934.515 323.307 934.329 322.507 934.329 321.6C934.329 320.693 934.51 319.899 934.873 319.216C935.235 318.533 935.742 318.011 936.393 317.648C937.054 317.275 937.811 317.088 938.665 317.088C939.497 317.088 940.233 317.269 940.873 317.632C941.513 317.995 942.003 318.496 942.345 319.136C942.697 319.765 942.873 320.48 942.873 321.28ZM941.369 320.976C941.369 320.421 941.246 319.947 941.001 319.552C940.755 319.147 940.419 318.843 939.993 318.64C939.577 318.427 939.113 318.32 938.601 318.32C937.865 318.32 937.235 318.555 936.713 319.024C936.201 319.493 935.907 320.144 935.833 320.976H941.369ZM758.584 341.072C759.245 341.072 759.843 341.216 760.376 341.504C760.909 341.781 761.325 342.203 761.624 342.768C761.933 343.333 762.088 344.021 762.088 344.832V350H760.648V345.04C760.648 344.165 760.429 343.499 759.992 343.04C759.555 342.571 758.957 342.336 758.2 342.336C757.432 342.336 756.819 342.576 756.36 343.056C755.912 343.536 755.688 344.235 755.688 345.152V350H754.232V338.16H755.688V342.48C755.976 342.032 756.371 341.685 756.872 341.44C757.384 341.195 757.955 341.072 758.584 341.072ZM765.218 339.808C764.941 339.808 764.706 339.712 764.514 339.52C764.322 339.328 764.226 339.093 764.226 338.816C764.226 338.539 764.322 338.304 764.514 338.112C764.706 337.92 764.941 337.824 765.218 337.824C765.485 337.824 765.709 337.92 765.89 338.112C766.082 338.304 766.178 338.539 766.178 338.816C766.178 339.093 766.082 339.328 765.89 339.52C765.709 339.712 765.485 339.808 765.218 339.808ZM765.922 341.232V350H764.466V341.232H765.922ZM772.02 341.088C772.777 341.088 773.439 341.253 774.004 341.584C774.58 341.915 775.007 342.331 775.284 342.832V341.232H776.756V350.192C776.756 350.992 776.585 351.701 776.244 352.32C775.903 352.949 775.412 353.44 774.772 353.792C774.143 354.144 773.407 354.32 772.564 354.32C771.412 354.32 770.452 354.048 769.684 353.504C768.916 352.96 768.463 352.219 768.324 351.28H769.764C769.924 351.813 770.255 352.24 770.756 352.56C771.257 352.891 771.86 353.056 772.564 353.056C773.364 353.056 774.015 352.805 774.516 352.304C775.028 351.803 775.284 351.099 775.284 350.192V348.352C774.996 348.864 774.569 349.291 774.004 349.632C773.439 349.973 772.777 350.144 772.02 350.144C771.241 350.144 770.532 349.952 769.892 349.568C769.263 349.184 768.767 348.645 768.404 347.952C768.041 347.259 767.86 346.469 767.86 345.584C767.86 344.688 768.041 343.904 768.404 343.232C768.767 342.549 769.263 342.021 769.892 341.648C770.532 341.275 771.241 341.088 772.02 341.088ZM775.284 345.6C775.284 344.939 775.151 344.363 774.884 343.872C774.617 343.381 774.255 343.008 773.796 342.752C773.348 342.485 772.852 342.352 772.308 342.352C771.764 342.352 771.268 342.48 770.82 342.736C770.372 342.992 770.015 343.365 769.748 343.856C769.481 344.347 769.348 344.923 769.348 345.584C769.348 346.256 769.481 346.843 769.748 347.344C770.015 347.835 770.372 348.213 770.82 348.48C771.268 348.736 771.764 348.864 772.308 348.864C772.852 348.864 773.348 348.736 773.796 348.48C774.255 348.213 774.617 347.835 774.884 347.344C775.151 346.843 775.284 346.261 775.284 345.6ZM783.568 341.072C784.23 341.072 784.827 341.216 785.36 341.504C785.894 341.781 786.31 342.203 786.608 342.768C786.918 343.333 787.072 344.021 787.072 344.832V350H785.632V345.04C785.632 344.165 785.414 343.499 784.976 343.04C784.539 342.571 783.942 342.336 783.184 342.336C782.416 342.336 781.803 342.576 781.344 343.056C780.896 343.536 780.672 344.235 780.672 345.152V350H779.216V338.16H780.672V342.48C780.96 342.032 781.355 341.685 781.856 341.44C782.368 341.195 782.939 341.072 783.568 341.072ZM795.531 343.52V344.752H789.147V343.52H795.531ZM797.719 345.584C797.719 344.688 797.901 343.904 798.263 343.232C798.626 342.549 799.122 342.021 799.751 341.648C800.391 341.275 801.106 341.088 801.895 341.088C802.653 341.088 803.314 341.259 803.879 341.6C804.455 341.931 804.877 342.341 805.143 342.832V341.232H806.615V354.16H805.143V348.384C804.866 348.875 804.439 349.291 803.863 349.632C803.287 349.973 802.615 350.144 801.847 350.144C801.079 350.144 800.381 349.952 799.751 349.568C799.122 349.184 798.626 348.645 798.263 347.952C797.901 347.259 797.719 346.469 797.719 345.584ZM805.143 345.6C805.143 344.939 805.01 344.363 804.743 343.872C804.477 343.381 804.114 343.008 803.655 342.752C803.207 342.485 802.711 342.352 802.167 342.352C801.623 342.352 801.127 342.48 800.679 342.736C800.231 342.992 799.874 343.365 799.607 343.856C799.341 344.347 799.207 344.923 799.207 345.584C799.207 346.256 799.341 346.843 799.607 347.344C799.874 347.835 800.231 348.213 800.679 348.48C801.127 348.736 801.623 348.864 802.167 348.864C802.711 348.864 803.207 348.736 803.655 348.48C804.114 348.213 804.477 347.835 804.743 347.344C805.01 346.843 805.143 346.261 805.143 345.6ZM816.852 341.232V350H815.396V348.704C815.118 349.152 814.729 349.504 814.228 349.76C813.737 350.005 813.193 350.128 812.596 350.128C811.913 350.128 811.3 349.989 810.756 349.712C810.212 349.424 809.78 348.997 809.46 348.432C809.15 347.867 808.996 347.179 808.996 346.368V341.232H810.436V346.176C810.436 347.04 810.654 347.707 811.092 348.176C811.529 348.635 812.126 348.864 812.884 348.864C813.662 348.864 814.276 348.624 814.724 348.144C815.172 347.664 815.396 346.965 815.396 346.048V341.232H816.852ZM818.766 345.584C818.766 344.688 818.947 343.904 819.31 343.232C819.673 342.549 820.169 342.021 820.798 341.648C821.438 341.275 822.147 341.088 822.926 341.088C823.694 341.088 824.361 341.253 824.926 341.584C825.491 341.915 825.913 342.331 826.19 342.832V341.232H827.662V350H826.19V348.368C825.902 348.88 825.47 349.307 824.894 349.648C824.329 349.979 823.667 350.144 822.91 350.144C822.131 350.144 821.427 349.952 820.798 349.568C820.169 349.184 819.673 348.645 819.31 347.952C818.947 347.259 818.766 346.469 818.766 345.584ZM826.19 345.6C826.19 344.939 826.057 344.363 825.79 343.872C825.523 343.381 825.161 343.008 824.702 342.752C824.254 342.485 823.758 342.352 823.214 342.352C822.67 342.352 822.174 342.48 821.726 342.736C821.278 342.992 820.921 343.365 820.654 343.856C820.387 344.347 820.254 344.923 820.254 345.584C820.254 346.256 820.387 346.843 820.654 347.344C820.921 347.835 821.278 348.213 821.726 348.48C822.174 348.736 822.67 348.864 823.214 348.864C823.758 348.864 824.254 348.736 824.702 348.48C825.161 348.213 825.523 347.835 825.79 347.344C826.057 346.843 826.19 346.261 826.19 345.6ZM831.579 338.16V350H830.123V338.16H831.579ZM834.812 339.808C834.535 339.808 834.3 339.712 834.108 339.52C833.916 339.328 833.82 339.093 833.82 338.816C833.82 338.539 833.916 338.304 834.108 338.112C834.3 337.92 834.535 337.824 834.812 337.824C835.079 337.824 835.303 337.92 835.484 338.112C835.676 338.304 835.772 338.539 835.772 338.816C835.772 339.093 835.676 339.328 835.484 339.52C835.303 339.712 835.079 339.808 834.812 339.808ZM835.516 341.232V350H834.06V341.232H835.516ZM839.774 342.432V347.6C839.774 348.027 839.864 348.331 840.046 348.512C840.227 348.683 840.542 348.768 840.99 348.768H842.062V350H840.75C839.939 350 839.331 349.813 838.926 349.44C838.52 349.067 838.318 348.453 838.318 347.6V342.432H837.182V341.232H838.318V339.024H839.774V341.232H842.062V342.432H839.774ZM851.378 341.232L846.098 354.128H844.594L846.322 349.904L842.786 341.232H844.402L847.154 348.336L849.874 341.232H851.378ZM856.563 345.584C856.563 344.688 856.744 343.904 857.107 343.232C857.47 342.549 857.966 342.021 858.595 341.648C859.235 341.275 859.95 341.088 860.739 341.088C861.422 341.088 862.056 341.248 862.643 341.568C863.23 341.877 863.678 342.288 863.987 342.8V338.16H865.459V350H863.987V348.352C863.699 348.875 863.272 349.307 862.707 349.648C862.142 349.979 861.48 350.144 860.723 350.144C859.944 350.144 859.235 349.952 858.595 349.568C857.966 349.184 857.47 348.645 857.107 347.952C856.744 347.259 856.563 346.469 856.563 345.584ZM863.987 345.6C863.987 344.939 863.854 344.363 863.587 343.872C863.32 343.381 862.958 343.008 862.499 342.752C862.051 342.485 861.555 342.352 861.011 342.352C860.467 342.352 859.971 342.48 859.523 342.736C859.075 342.992 858.718 343.365 858.451 343.856C858.184 344.347 858.051 344.923 858.051 345.584C858.051 346.256 858.184 346.843 858.451 347.344C858.718 347.835 859.075 348.213 859.523 348.48C859.971 348.736 860.467 348.864 861.011 348.864C861.555 348.864 862.051 348.736 862.499 348.48C862.958 348.213 863.32 347.835 863.587 347.344C863.854 346.843 863.987 346.261 863.987 345.6ZM875.92 345.28C875.92 345.557 875.904 345.851 875.872 346.16H868.864C868.917 347.024 869.21 347.701 869.744 348.192C870.288 348.672 870.944 348.912 871.712 348.912C872.341 348.912 872.864 348.768 873.28 348.48C873.706 348.181 874.005 347.787 874.176 347.296H875.744C875.509 348.139 875.04 348.827 874.336 349.36C873.632 349.883 872.757 350.144 871.712 350.144C870.88 350.144 870.133 349.957 869.472 349.584C868.821 349.211 868.309 348.683 867.936 348C867.562 347.307 867.376 346.507 867.376 345.6C867.376 344.693 867.557 343.899 867.92 343.216C868.282 342.533 868.789 342.011 869.44 341.648C870.101 341.275 870.858 341.088 871.712 341.088C872.544 341.088 873.28 341.269 873.92 341.632C874.56 341.995 875.05 342.496 875.392 343.136C875.744 343.765 875.92 344.48 875.92 345.28ZM874.416 344.976C874.416 344.421 874.293 343.947 874.048 343.552C873.802 343.147 873.466 342.843 873.04 342.64C872.624 342.427 872.16 342.32 871.648 342.32C870.912 342.32 870.282 342.555 869.76 343.024C869.248 343.493 868.954 344.144 868.88 344.976H874.416ZM877.297 345.6C877.297 344.693 877.479 343.904 877.841 343.232C878.204 342.549 878.705 342.021 879.345 341.648C879.996 341.275 880.737 341.088 881.569 341.088C882.647 341.088 883.532 341.349 884.225 341.872C884.929 342.395 885.393 343.12 885.617 344.048H884.049C883.9 343.515 883.607 343.093 883.169 342.784C882.743 342.475 882.209 342.32 881.569 342.32C880.737 342.32 880.065 342.608 879.553 343.184C879.041 343.749 878.785 344.555 878.785 345.6C878.785 346.656 879.041 347.472 879.553 348.048C880.065 348.624 880.737 348.912 881.569 348.912C882.209 348.912 882.743 348.763 883.169 348.464C883.596 348.165 883.889 347.739 884.049 347.184H885.617C885.383 348.08 884.913 348.8 884.209 349.344C883.505 349.877 882.625 350.144 881.569 350.144C880.737 350.144 879.996 349.957 879.345 349.584C878.705 349.211 878.204 348.683 877.841 348C877.479 347.317 877.297 346.517 877.297 345.6ZM888.312 339.808C888.035 339.808 887.8 339.712 887.608 339.52C887.416 339.328 887.32 339.093 887.32 338.816C887.32 338.539 887.416 338.304 887.608 338.112C887.8 337.92 888.035 337.824 888.312 337.824C888.579 337.824 888.803 337.92 888.984 338.112C889.176 338.304 889.272 338.539 889.272 338.816C889.272 339.093 889.176 339.328 888.984 339.52C888.803 339.712 888.579 339.808 888.312 339.808ZM889.016 341.232V350H887.56V341.232H889.016ZM894.602 350.144C893.93 350.144 893.327 350.032 892.794 349.808C892.26 349.573 891.839 349.253 891.53 348.848C891.22 348.432 891.05 347.957 891.018 347.424H892.522C892.564 347.861 892.767 348.219 893.13 348.496C893.503 348.773 893.988 348.912 894.586 348.912C895.14 348.912 895.578 348.789 895.898 348.544C896.218 348.299 896.378 347.989 896.378 347.616C896.378 347.232 896.207 346.949 895.866 346.768C895.524 346.576 894.996 346.389 894.282 346.208C893.631 346.037 893.098 345.867 892.682 345.696C892.276 345.515 891.924 345.253 891.626 344.912C891.338 344.56 891.194 344.101 891.194 343.536C891.194 343.088 891.327 342.677 891.594 342.304C891.86 341.931 892.239 341.637 892.73 341.424C893.22 341.2 893.78 341.088 894.41 341.088C895.38 341.088 896.164 341.333 896.762 341.824C897.359 342.315 897.679 342.987 897.722 343.84H896.266C896.234 343.381 896.047 343.013 895.706 342.736C895.375 342.459 894.927 342.32 894.362 342.32C893.839 342.32 893.423 342.432 893.114 342.656C892.804 342.88 892.65 343.173 892.65 343.536C892.65 343.824 892.74 344.064 892.922 344.256C893.114 344.437 893.348 344.587 893.626 344.704C893.914 344.811 894.308 344.933 894.81 345.072C895.439 345.243 895.951 345.413 896.346 345.584C896.74 345.744 897.076 345.989 897.354 346.32C897.642 346.651 897.791 347.083 897.802 347.616C897.802 348.096 897.668 348.528 897.402 348.912C897.135 349.296 896.756 349.6 896.266 349.824C895.786 350.037 895.231 350.144 894.602 350.144ZM900.609 339.808C900.332 339.808 900.097 339.712 899.905 339.52C899.713 339.328 899.617 339.093 899.617 338.816C899.617 338.539 899.713 338.304 899.905 338.112C900.097 337.92 900.332 337.824 900.609 337.824C900.876 337.824 901.1 337.92 901.281 338.112C901.473 338.304 901.569 338.539 901.569 338.816C901.569 339.093 901.473 339.328 901.281 339.52C901.1 339.712 900.876 339.808 900.609 339.808ZM901.313 341.232V350H899.857V341.232H901.313ZM907.619 350.144C906.797 350.144 906.051 349.957 905.379 349.584C904.717 349.211 904.195 348.683 903.811 348C903.437 347.307 903.251 346.507 903.251 345.6C903.251 344.704 903.443 343.915 903.827 343.232C904.221 342.539 904.755 342.011 905.427 341.648C906.099 341.275 906.851 341.088 907.683 341.088C908.515 341.088 909.267 341.275 909.939 341.648C910.611 342.011 911.139 342.533 911.523 343.216C911.917 343.899 912.115 344.693 912.115 345.6C912.115 346.507 911.912 347.307 911.507 348C911.112 348.683 910.573 349.211 909.891 349.584C909.208 349.957 908.451 350.144 907.619 350.144ZM907.619 348.864C908.141 348.864 908.632 348.741 909.091 348.496C909.549 348.251 909.917 347.883 910.195 347.392C910.483 346.901 910.627 346.304 910.627 345.6C910.627 344.896 910.488 344.299 910.211 343.808C909.933 343.317 909.571 342.955 909.123 342.72C908.675 342.475 908.189 342.352 907.667 342.352C907.133 342.352 906.643 342.475 906.195 342.72C905.757 342.955 905.405 343.317 905.139 343.808C904.872 344.299 904.739 344.896 904.739 345.6C904.739 346.315 904.867 346.917 905.123 347.408C905.389 347.899 905.741 348.267 906.179 348.512C906.616 348.747 907.096 348.864 907.619 348.864ZM918.301 341.072C919.368 341.072 920.232 341.397 920.893 342.048C921.554 342.688 921.885 343.616 921.885 344.832V350H920.445V345.04C920.445 344.165 920.226 343.499 919.789 343.04C919.352 342.571 918.754 342.336 917.997 342.336C917.229 342.336 916.616 342.576 916.157 343.056C915.709 343.536 915.485 344.235 915.485 345.152V350H914.029V341.232H915.485V342.48C915.773 342.032 916.162 341.685 916.653 341.44C917.154 341.195 917.704 341.072 918.301 341.072ZM927.367 350.144C926.695 350.144 926.093 350.032 925.559 349.808C925.026 349.573 924.605 349.253 924.295 348.848C923.986 348.432 923.815 347.957 923.783 347.424H925.287C925.33 347.861 925.533 348.219 925.895 348.496C926.269 348.773 926.754 348.912 927.351 348.912C927.906 348.912 928.343 348.789 928.663 348.544C928.983 348.299 929.143 347.989 929.143 347.616C929.143 347.232 928.973 346.949 928.631 346.768C928.29 346.576 927.762 346.389 927.047 346.208C926.397 346.037 925.863 345.867 925.447 345.696C925.042 345.515 924.69 345.253 924.391 344.912C924.103 344.56 923.959 344.101 923.959 343.536C923.959 343.088 924.093 342.677 924.359 342.304C924.626 341.931 925.005 341.637 925.495 341.424C925.986 341.2 926.546 341.088 927.175 341.088C928.146 341.088 928.93 341.333 929.527 341.824C930.125 342.315 930.445 342.987 930.487 343.84H929.031C928.999 343.381 928.813 343.013 928.471 342.736C928.141 342.459 927.693 342.32 927.127 342.32C926.605 342.32 926.189 342.432 925.879 342.656C925.57 342.88 925.415 343.173 925.415 343.536C925.415 343.824 925.506 344.064 925.687 344.256C925.879 344.437 926.114 344.587 926.391 344.704C926.679 344.811 927.074 344.933 927.575 345.072C928.205 345.243 928.717 345.413 929.111 345.584C929.506 345.744 929.842 345.989 930.119 346.32C930.407 346.651 930.557 347.083 930.567 347.616C930.567 348.096 930.434 348.528 930.167 348.912C929.901 349.296 929.522 349.6 929.031 349.824C928.551 350.037 927.997 350.144 927.367 350.144Z" fill="#1D1D1D" fill-opacity="0.8"/>
<path d="M726.053 309.98C724.991 308.866 725.533 307.019 727.029 306.656L742.179 302.982C743.675 302.619 745.003 304.012 744.569 305.489L740.177 320.446C739.743 321.923 737.873 322.377 736.81 321.262L726.053 309.98Z" fill="white"/>
</g>
<g filter="url(#filter2_d_292_1427)">
<rect x="185" y="191" width="191" height="68" rx="12" fill="white" shape-rendering="crispEdges"/>
<path d="M210.904 216.728H206.248L205.448 219H203.544L207.528 207.864H209.64L213.624 219H211.704L210.904 216.728ZM210.392 215.24L208.584 210.072L206.76 215.24H210.392ZM222.713 219.144C222.019 219.144 221.395 219.021 220.841 218.776C220.297 218.52 219.865 218.179 219.545 217.752C219.225 217.315 219.054 216.829 219.033 216.296H220.921C220.953 216.669 221.129 216.984 221.449 217.24C221.779 217.485 222.19 217.608 222.681 217.608C223.193 217.608 223.587 217.512 223.865 217.32C224.153 217.117 224.297 216.861 224.297 216.552C224.297 216.221 224.137 215.976 223.817 215.816C223.507 215.656 223.011 215.48 222.329 215.288C221.667 215.107 221.129 214.931 220.713 214.76C220.297 214.589 219.934 214.328 219.625 213.976C219.326 213.624 219.177 213.16 219.177 212.584C219.177 212.115 219.315 211.688 219.593 211.304C219.87 210.909 220.265 210.6 220.777 210.376C221.299 210.152 221.897 210.04 222.569 210.04C223.571 210.04 224.377 210.296 224.985 210.808C225.603 211.309 225.934 211.997 225.977 212.872H224.153C224.121 212.477 223.961 212.163 223.673 211.928C223.385 211.693 222.995 211.576 222.505 211.576C222.025 211.576 221.657 211.667 221.401 211.848C221.145 212.029 221.017 212.269 221.017 212.568C221.017 212.803 221.102 213 221.273 213.16C221.443 213.32 221.651 213.448 221.897 213.544C222.142 213.629 222.505 213.741 222.985 213.88C223.625 214.051 224.147 214.227 224.553 214.408C224.969 214.579 225.326 214.835 225.625 215.176C225.923 215.517 226.078 215.971 226.089 216.536C226.089 217.037 225.95 217.485 225.673 217.88C225.395 218.275 225.001 218.584 224.489 218.808C223.987 219.032 223.395 219.144 222.713 219.144ZM230.187 211.672V216.552C230.187 216.883 230.262 217.123 230.411 217.272C230.571 217.411 230.838 217.48 231.211 217.48H232.331V219H230.891C230.07 219 229.441 218.808 229.003 218.424C228.566 218.04 228.347 217.416 228.347 216.552V211.672H227.307V210.184H228.347V207.992H230.187V210.184H232.331V211.672H230.187ZM241.997 210.184V219H240.173V217.96C239.885 218.323 239.506 218.611 239.037 218.824C238.578 219.027 238.087 219.128 237.565 219.128C236.871 219.128 236.247 218.984 235.693 218.696C235.149 218.408 234.717 217.981 234.397 217.416C234.087 216.851 233.933 216.168 233.933 215.368V210.184H235.741V215.096C235.741 215.885 235.938 216.493 236.333 216.92C236.727 217.336 237.266 217.544 237.949 217.544C238.631 217.544 239.17 217.336 239.565 216.92C239.97 216.493 240.173 215.885 240.173 215.096V210.184H241.997ZM243.795 214.552C243.795 213.667 243.976 212.883 244.339 212.2C244.712 211.517 245.214 210.989 245.843 210.616C246.483 210.232 247.192 210.04 247.971 210.04C248.547 210.04 249.112 210.168 249.667 210.424C250.232 210.669 250.68 211 251.011 211.416V207.16H252.851V219H251.011V217.672C250.712 218.099 250.296 218.451 249.763 218.728C249.24 219.005 248.638 219.144 247.955 219.144C247.187 219.144 246.483 218.952 245.843 218.568C245.214 218.173 244.712 217.629 244.339 216.936C243.976 216.232 243.795 215.437 243.795 214.552ZM251.011 214.584C251.011 213.976 250.883 213.448 250.627 213C250.382 212.552 250.056 212.211 249.651 211.976C249.246 211.741 248.808 211.624 248.339 211.624C247.87 211.624 247.432 211.741 247.027 211.976C246.622 212.2 246.291 212.536 246.035 212.984C245.79 213.421 245.667 213.944 245.667 214.552C245.667 215.16 245.79 215.693 246.035 216.152C246.291 216.611 246.622 216.963 247.027 217.208C247.443 217.443 247.88 217.56 248.339 217.56C248.808 217.56 249.246 217.443 249.651 217.208C250.056 216.973 250.382 216.632 250.627 216.184C250.883 215.725 251.011 215.192 251.011 214.584ZM263.327 214.376C263.327 214.707 263.306 215.005 263.263 215.272H256.527C256.58 215.976 256.842 216.541 257.311 216.968C257.78 217.395 258.356 217.608 259.039 217.608C260.02 217.608 260.714 217.197 261.119 216.376H263.087C262.82 217.187 262.335 217.853 261.631 218.376C260.938 218.888 260.074 219.144 259.039 219.144C258.196 219.144 257.439 218.957 256.767 218.584C256.106 218.2 255.583 217.667 255.199 216.984C254.826 216.291 254.639 215.491 254.639 214.584C254.639 213.677 254.82 212.883 255.183 212.2C255.556 211.507 256.074 210.973 256.735 210.6C257.407 210.227 258.175 210.04 259.039 210.04C259.871 210.04 260.612 210.221 261.263 210.584C261.914 210.947 262.42 211.459 262.783 212.12C263.146 212.771 263.327 213.523 263.327 214.376ZM261.423 213.8C261.412 213.128 261.172 212.589 260.703 212.184C260.234 211.779 259.652 211.576 258.959 211.576C258.33 211.576 257.791 211.779 257.343 212.184C256.895 212.579 256.628 213.117 256.543 213.8H261.423ZM269.57 210.04C270.263 210.04 270.882 210.184 271.426 210.472C271.981 210.76 272.413 211.187 272.722 211.752C273.031 212.317 273.186 213 273.186 213.8V219H271.378V214.072C271.378 213.283 271.181 212.68 270.786 212.264C270.391 211.837 269.853 211.624 269.17 211.624C268.487 211.624 267.943 211.837 267.538 212.264C267.143 212.68 266.946 213.283 266.946 214.072V219H265.122V210.184H266.946V211.192C267.245 210.829 267.623 210.547 268.082 210.344C268.551 210.141 269.047 210.04 269.57 210.04ZM277.641 211.672V216.552C277.641 216.883 277.715 217.123 277.865 217.272C278.025 217.411 278.291 217.48 278.665 217.48H279.785V219H278.345C277.523 219 276.894 218.808 276.457 218.424C276.019 218.04 275.801 217.416 275.801 216.552V211.672H274.761V210.184H275.801V207.992H277.641V210.184H279.785V211.672H277.641Z" fill="#0298C7"/>
<path d="M297.443 210.232L294.707 219H293.203L291.091 212.04L288.979 219H287.475L284.723 210.232H286.211L288.227 217.592L290.403 210.232H291.891L294.019 217.608L296.003 210.232H297.443ZM303.24 210.072C303.902 210.072 304.499 210.216 305.032 210.504C305.566 210.781 305.982 211.203 306.28 211.768C306.59 212.333 306.744 213.021 306.744 213.832V219H305.304V214.04C305.304 213.165 305.086 212.499 304.648 212.04C304.211 211.571 303.614 211.336 302.856 211.336C302.088 211.336 301.475 211.576 301.016 212.056C300.568 212.536 300.344 213.235 300.344 214.152V219H298.888V207.16H300.344V211.48C300.632 211.032 301.027 210.685 301.528 210.44C302.04 210.195 302.611 210.072 303.24 210.072ZM312.947 219.144C312.125 219.144 311.379 218.957 310.707 218.584C310.045 218.211 309.523 217.683 309.139 217C308.765 216.307 308.579 215.507 308.579 214.6C308.579 213.704 308.771 212.915 309.155 212.232C309.549 211.539 310.083 211.011 310.755 210.648C311.427 210.275 312.179 210.088 313.011 210.088C313.843 210.088 314.595 210.275 315.267 210.648C315.939 211.011 316.467 211.533 316.851 212.216C317.245 212.899 317.443 213.693 317.443 214.6C317.443 215.507 317.24 216.307 316.835 217C316.44 217.683 315.901 218.211 315.219 218.584C314.536 218.957 313.779 219.144 312.947 219.144ZM312.947 217.864C313.469 217.864 313.96 217.741 314.419 217.496C314.877 217.251 315.245 216.883 315.523 216.392C315.811 215.901 315.955 215.304 315.955 214.6C315.955 213.896 315.816 213.299 315.539 212.808C315.261 212.317 314.899 211.955 314.451 211.72C314.003 211.475 313.517 211.352 312.995 211.352C312.461 211.352 311.971 211.475 311.523 211.72C311.085 211.955 310.733 212.317 310.467 212.808C310.2 213.299 310.067 213.896 310.067 214.6C310.067 215.315 310.195 215.917 310.451 216.408C310.717 216.899 311.069 217.267 311.507 217.512C311.944 217.747 312.424 217.864 312.947 217.864ZM323.079 214.6C323.079 213.693 323.26 212.904 323.623 212.232C323.985 211.549 324.487 211.021 325.127 210.648C325.777 210.275 326.519 210.088 327.351 210.088C328.428 210.088 329.313 210.349 330.007 210.872C330.711 211.395 331.175 212.12 331.399 213.048H329.831C329.681 212.515 329.388 212.093 328.951 211.784C328.524 211.475 327.991 211.32 327.351 211.32C326.519 211.32 325.847 211.608 325.335 212.184C324.823 212.749 324.567 213.555 324.567 214.6C324.567 215.656 324.823 216.472 325.335 217.048C325.847 217.624 326.519 217.912 327.351 217.912C327.991 217.912 328.524 217.763 328.951 217.464C329.377 217.165 329.671 216.739 329.831 216.184H331.399C331.164 217.08 330.695 217.8 329.991 218.344C329.287 218.877 328.407 219.144 327.351 219.144C326.519 219.144 325.777 218.957 325.127 218.584C324.487 218.211 323.985 217.683 323.623 217C323.26 216.317 323.079 215.517 323.079 214.6ZM332.797 214.584C332.797 213.688 332.979 212.904 333.341 212.232C333.704 211.549 334.2 211.021 334.829 210.648C335.469 210.275 336.179 210.088 336.957 210.088C337.725 210.088 338.392 210.253 338.957 210.584C339.523 210.915 339.944 211.331 340.221 211.832V210.232H341.693V219H340.221V217.368C339.933 217.88 339.501 218.307 338.925 218.648C338.36 218.979 337.699 219.144 336.941 219.144C336.163 219.144 335.459 218.952 334.829 218.568C334.2 218.184 333.704 217.645 333.341 216.952C332.979 216.259 332.797 215.469 332.797 214.584ZM340.221 214.6C340.221 213.939 340.088 213.363 339.821 212.872C339.555 212.381 339.192 212.008 338.733 211.752C338.285 211.485 337.789 211.352 337.245 211.352C336.701 211.352 336.205 211.48 335.757 211.736C335.309 211.992 334.952 212.365 334.685 212.856C334.419 213.347 334.285 213.923 334.285 214.584C334.285 215.256 334.419 215.843 334.685 216.344C334.952 216.835 335.309 217.213 335.757 217.48C336.205 217.736 336.701 217.864 337.245 217.864C337.789 217.864 338.285 217.736 338.733 217.48C339.192 217.213 339.555 216.835 339.821 216.344C340.088 215.843 340.221 215.261 340.221 214.6ZM348.426 210.072C349.493 210.072 350.357 210.397 351.018 211.048C351.679 211.688 352.01 212.616 352.01 213.832V219H350.57V214.04C350.57 213.165 350.351 212.499 349.914 212.04C349.477 211.571 348.879 211.336 348.122 211.336C347.354 211.336 346.741 211.576 346.282 212.056C345.834 212.536 345.61 213.235 345.61 214.152V219H344.154V210.232H345.61V211.48C345.898 211.032 346.287 210.685 346.778 210.44C347.279 210.195 347.829 210.072 348.426 210.072ZM206.008 235.432V240.6C206.008 241.027 206.099 241.331 206.28 241.512C206.461 241.683 206.776 241.768 207.224 241.768H208.296V243H206.984C206.173 243 205.565 242.813 205.16 242.44C204.755 242.067 204.552 241.453 204.552 240.6V235.432H203.416V234.232H204.552V232.024H206.008V234.232H208.296V235.432H206.008ZM214.412 234.072C215.073 234.072 215.671 234.216 216.204 234.504C216.737 234.781 217.153 235.203 217.452 235.768C217.761 236.333 217.916 237.021 217.916 237.832V243H216.476V238.04C216.476 237.165 216.257 236.499 215.82 236.04C215.383 235.571 214.785 235.336 214.028 235.336C213.26 235.336 212.647 235.576 212.188 236.056C211.74 236.536 211.516 237.235 211.516 238.152V243H210.06V231.16H211.516V235.48C211.804 235.032 212.199 234.685 212.7 234.44C213.212 234.195 213.783 234.072 214.412 234.072ZM221.047 232.808C220.769 232.808 220.535 232.712 220.343 232.52C220.151 232.328 220.055 232.093 220.055 231.816C220.055 231.539 220.151 231.304 220.343 231.112C220.535 230.92 220.769 230.824 221.047 230.824C221.313 230.824 221.537 230.92 221.719 231.112C221.911 231.304 222.007 231.539 222.007 231.816C222.007 232.093 221.911 232.328 221.719 232.52C221.537 232.712 221.313 232.808 221.047 232.808ZM221.751 234.232V243H220.295V234.232H221.751ZM228.504 234.072C229.571 234.072 230.435 234.397 231.096 235.048C231.757 235.688 232.088 236.616 232.088 237.832V243H230.648V238.04C230.648 237.165 230.429 236.499 229.992 236.04C229.555 235.571 228.957 235.336 228.2 235.336C227.432 235.336 226.819 235.576 226.36 236.056C225.912 236.536 225.688 237.235 225.688 238.152V243H224.232V234.232H225.688V235.48C225.976 235.032 226.365 234.685 226.856 234.44C227.357 234.195 227.907 234.072 228.504 234.072ZM239.362 243L235.922 239.128V243H234.466V231.16H235.922V238.12L239.298 234.232H241.33L237.202 238.6L241.346 243H239.362ZM250.07 243.144C249.398 243.144 248.796 243.032 248.262 242.808C247.729 242.573 247.308 242.253 246.998 241.848C246.689 241.432 246.518 240.957 246.486 240.424H247.99C248.033 240.861 248.236 241.219 248.598 241.496C248.972 241.773 249.457 241.912 250.054 241.912C250.609 241.912 251.046 241.789 251.366 241.544C251.686 241.299 251.846 240.989 251.846 240.616C251.846 240.232 251.676 239.949 251.334 239.768C250.993 239.576 250.465 239.389 249.75 239.208C249.1 239.037 248.566 238.867 248.15 238.696C247.745 238.515 247.393 238.253 247.094 237.912C246.806 237.56 246.662 237.101 246.662 236.536C246.662 236.088 246.796 235.677 247.062 235.304C247.329 234.931 247.708 234.637 248.198 234.424C248.689 234.2 249.249 234.088 249.878 234.088C250.849 234.088 251.633 234.333 252.23 234.824C252.828 235.315 253.148 235.987 253.19 236.84H251.734C251.702 236.381 251.516 236.013 251.174 235.736C250.844 235.459 250.396 235.32 249.83 235.32C249.308 235.32 248.892 235.432 248.582 235.656C248.273 235.88 248.118 236.173 248.118 236.536C248.118 236.824 248.209 237.064 248.39 237.256C248.582 237.437 248.817 237.587 249.094 237.704C249.382 237.811 249.777 237.933 250.278 238.072C250.908 238.243 251.42 238.413 251.814 238.584C252.209 238.744 252.545 238.989 252.822 239.32C253.11 239.651 253.26 240.083 253.27 240.616C253.27 241.096 253.137 241.528 252.87 241.912C252.604 242.296 252.225 242.6 251.734 242.824C251.254 243.037 250.7 243.144 250.07 243.144ZM257.102 235.432V240.6C257.102 241.027 257.192 241.331 257.374 241.512C257.555 241.683 257.87 241.768 258.318 241.768H259.39V243H258.078C257.267 243 256.659 242.813 256.254 242.44C255.848 242.067 255.646 241.453 255.646 240.6V235.432H254.51V234.232H255.646V232.024H257.102V234.232H259.39V235.432H257.102ZM262.61 235.656C262.866 235.155 263.229 234.765 263.698 234.488C264.178 234.211 264.759 234.072 265.442 234.072V235.576H265.058C263.426 235.576 262.61 236.461 262.61 238.232V243H261.154V234.232H262.61V235.656ZM274.899 234.232V243H273.443V241.704C273.165 242.152 272.776 242.504 272.275 242.76C271.784 243.005 271.24 243.128 270.643 243.128C269.96 243.128 269.347 242.989 268.803 242.712C268.259 242.424 267.827 241.997 267.507 241.432C267.197 240.867 267.043 240.179 267.043 239.368V234.232H268.483V239.176C268.483 240.04 268.701 240.707 269.139 241.176C269.576 241.635 270.173 241.864 270.931 241.864C271.709 241.864 272.323 241.624 272.771 241.144C273.219 240.664 273.443 239.965 273.443 239.048V234.232H274.899ZM276.813 238.6C276.813 237.693 276.994 236.904 277.357 236.232C277.72 235.549 278.221 235.021 278.861 234.648C279.512 234.275 280.253 234.088 281.085 234.088C282.162 234.088 283.048 234.349 283.741 234.872C284.445 235.395 284.909 236.12 285.133 237.048H283.565C283.416 236.515 283.122 236.093 282.685 235.784C282.258 235.475 281.725 235.32 281.085 235.32C280.253 235.32 279.581 235.608 279.069 236.184C278.557 236.749 278.301 237.555 278.301 238.6C278.301 239.656 278.557 240.472 279.069 241.048C279.581 241.624 280.253 241.912 281.085 241.912C281.725 241.912 282.258 241.763 282.685 241.464C283.112 241.165 283.405 240.739 283.565 240.184H285.133C284.898 241.08 284.429 241.8 283.725 242.344C283.021 242.877 282.141 243.144 281.085 243.144C280.253 243.144 279.512 242.957 278.861 242.584C278.221 242.211 277.72 241.683 277.357 241C276.994 240.317 276.813 239.517 276.813 238.6ZM288.852 235.432V240.6C288.852 241.027 288.942 241.331 289.124 241.512C289.305 241.683 289.62 241.768 290.068 241.768H291.14V243H289.828C289.017 243 288.409 242.813 288.004 242.44C287.598 242.067 287.396 241.453 287.396 240.6V235.432H286.26V234.232H287.396V232.024H288.852V234.232H291.14V235.432H288.852ZM300.68 234.232V243H299.224V241.704C298.947 242.152 298.557 242.504 298.056 242.76C297.565 243.005 297.021 243.128 296.424 243.128C295.741 243.128 295.128 242.989 294.584 242.712C294.04 242.424 293.608 241.997 293.288 241.432C292.979 240.867 292.824 240.179 292.824 239.368V234.232H294.264V239.176C294.264 240.04 294.483 240.707 294.92 241.176C295.357 241.635 295.955 241.864 296.712 241.864C297.491 241.864 298.104 241.624 298.552 241.144C299 240.664 299.224 239.965 299.224 239.048V234.232H300.68ZM304.594 235.656C304.85 235.155 305.213 234.765 305.682 234.488C306.162 234.211 306.744 234.072 307.426 234.072V235.576H307.042C305.41 235.576 304.594 236.461 304.594 238.232V243H303.138V234.232H304.594V235.656ZM308.563 238.584C308.563 237.688 308.744 236.904 309.107 236.232C309.47 235.549 309.966 235.021 310.595 234.648C311.235 234.275 311.944 234.088 312.723 234.088C313.491 234.088 314.158 234.253 314.723 234.584C315.288 234.915 315.71 235.331 315.987 235.832V234.232H317.459V243H315.987V241.368C315.699 241.88 315.267 242.307 314.691 242.648C314.126 242.979 313.464 243.144 312.707 243.144C311.928 243.144 311.224 242.952 310.595 242.568C309.966 242.184 309.47 241.645 309.107 240.952C308.744 240.259 308.563 239.469 308.563 238.584ZM315.987 238.6C315.987 237.939 315.854 237.363 315.587 236.872C315.32 236.381 314.958 236.008 314.499 235.752C314.051 235.485 313.555 235.352 313.011 235.352C312.467 235.352 311.971 235.48 311.523 235.736C311.075 235.992 310.718 236.365 310.451 236.856C310.184 237.347 310.051 237.923 310.051 238.584C310.051 239.256 310.184 239.843 310.451 240.344C310.718 240.835 311.075 241.213 311.523 241.48C311.971 241.736 312.467 241.864 313.011 241.864C313.555 241.864 314.051 241.736 314.499 241.48C314.958 241.213 315.32 240.835 315.587 240.344C315.854 239.843 315.987 239.261 315.987 238.6ZM321.376 231.16V243H319.92V231.16H321.376ZM325.313 231.16V243H323.857V231.16H325.313ZM335.347 234.232L330.067 247.128H328.562L330.291 242.904L326.755 234.232H328.371L331.123 241.336L333.843 234.232H335.347Z" fill="#1D1D1D" fill-opacity="0.8"/>
<path d="M385.218 202.98C386.281 201.866 385.738 200.019 384.242 199.656L369.093 195.982C367.597 195.619 366.269 197.012 366.702 198.489L371.095 213.446C371.529 214.923 373.399 215.377 374.461 214.262L385.218 202.98Z" fill="white"/>
</g>
<rect x="394" y="186" width="78" height="78" rx="39" fill="#0298C7"/>
<rect x="394" y="186" width="78" height="78" rx="39" stroke="#67DBFF" stroke-width="4"/>
<path d="M424.904 234.56C427.976 231.904 430.392 229.728 432.152 228.032C433.944 226.304 435.432 224.512 436.616 222.656C437.8 220.8 438.392 218.944 438.392 217.088C438.392 215.168 437.928 213.664 437 212.576C436.104 211.488 434.68 210.944 432.728 210.944C430.84 210.944 429.368 211.552 428.312 212.768C427.288 213.952 426.744 215.552 426.68 217.568H421.4C421.496 213.92 422.584 211.136 424.664 209.216C426.776 207.264 429.448 206.288 432.68 206.288C436.168 206.288 438.888 207.248 440.84 209.168C442.824 211.088 443.816 213.648 443.816 216.848C443.816 219.152 443.224 221.376 442.04 223.52C440.888 225.632 439.496 227.536 437.864 229.232C436.264 230.896 434.216 232.832 431.72 235.04L429.56 236.96H444.776V241.52H421.448V237.536L424.904 234.56Z" fill="white"/>
<defs>
<filter id="filter0_d_292_1427" x="93.099" y="24.6" width="191.301" height="74.8" filterUnits="userSpaceOnUse" color-interpolation-filters="sRGB">
<feFlood flood-opacity="0" result="BackgroundImageFix"/>
<feColorMatrix in="SourceAlpha" type="matrix" values="0 0 0 0 0 0 0 0 0 0 0 0 0 0 0 0 0 0 127 0" result="hardAlpha"/>
<feOffset/>
<feGaussianBlur stdDeviation="1.7"/>
<feComposite in2="hardAlpha" operator="out"/>
<feColorMatrix type="matrix" values="0 0 0 0 0 0 0 0 0 0 0 0 0 0 0 0 0 0 0.33 0"/>
<feBlend mode="normal" in2="BackgroundImageFix" result="effect1_dropShadow_292_1427"/>
<feBlend mode="normal" in="SourceGraphic" in2="effect1_dropShadow_292_1427" result="shape"/>
</filter>
<filter id="filter1_d_292_1427" x="722.099" y="294.6" width="243.301" height="74.8" filterUnits="userSpaceOnUse" color-interpolation-filters="sRGB">
<feFlood flood-opacity="0" result="BackgroundImageFix"/>
<feColorMatrix in="SourceAlpha" type="matrix" values="0 0 0 0 0 0 0 0 0 0 0 0 0 0 0 0 0 0 127 0" result="hardAlpha"/>
<feOffset/>
<feGaussianBlur stdDeviation="1.7"/>
<feComposite in2="hardAlpha" operator="out"/>
<feColorMatrix type="matrix" values="0 0 0 0 0 0 0 0 0 0 0 0 0 0 0 0 0 0 0.33 0"/>
<feBlend mode="normal" in2="BackgroundImageFix" result="effect1_dropShadow_292_1427"/>
<feBlend mode="normal" in="SourceGraphic" in2="effect1_dropShadow_292_1427" result="shape"/>
</filter>
<filter id="filter2_d_292_1427" x="181.6" y="187.6" width="207.572" height="74.8" filterUnits="userSpaceOnUse" color-interpolation-filters="sRGB">
<feFlood flood-opacity="0" result="BackgroundImageFix"/>
<feColorMatrix in="SourceAlpha" type="matrix" values="0 0 0 0 0 0 0 0 0 0 0 0 0 0 0 0 0 0 127 0" result="hardAlpha"/>
<feOffset/>
<feGaussianBlur stdDeviation="1.7"/>
<feComposite in2="hardAlpha" operator="out"/>
<feColorMatrix type="matrix" values="0 0 0 0 0 0 0 0 0 0 0 0 0 0 0 0 0 0 0.33 0"/>
<feBlend mode="normal" in2="BackgroundImageFix" result="effect1_dropShadow_292_1427"/>
<feBlend mode="normal" in="SourceGraphic" in2="effect1_dropShadow_292_1427" result="shape"/>
</filter>
</defs>
</svg>
